<svg xmlns="http://www.w3.org/2000/svg" width="772.744" height="220.391" viewBox="0 0 772.744 220.391"><defs><style>.a{fill:#393939;opacity:0.08;}</style></defs><path class="a" d="M-5911.175-5543.736s-17.17-14.611-39.479-33.363h-.844s-6.094-5.477-15.3-13.536c-24.777-20.721-52.061-43.273-68.683-56.2a101.947,101.947,0,0,0-11.172-7.038c-22.639-11.6-38.214-10.563-53.167-8.7a81.034,81.034,0,0,0-15.94,3.438q-1.805.925-3.6,1.991l-77.045,45.931c-6.374,4.195-11.473,7.522-14.114,9.125-9.553,5.8-25.753,14.915-36.759,17.4s-29.076,4.35-42.368,1.862c-7.232-1.352-16.2-5.688-24.521-10.883a79.724,79.724,0,0,1-8.375-4.514c-10.836-6.708-20.65-18.457-29.259-32.249-3.724-5.53-7.588-11.945-11.72-19.563-3.047-5.619-6.534-14.367-10.015-24.2A479.279,479.279,0,0,1-6392-5729.146l1.5.294c-1.571-5.582-2.5-9.033-2.5-9.033l212.83-.1,559.915-.018s-.154,120.674-.206,160.9h-2.7c-17.173,6.6-124.985,47.47-184.617,57.408a150,150,0,0,1-24.7,2.083C-5882.344-5517.609-5911.175-5543.736-5911.175-5543.736Z" transform="translate(6393 5738)"/></svg>