<svg
  width="76"
  height="113"
  viewBox="0 0 76 113"
  fill="none"
  xmlns="http://www.w3.org/2000/svg"
>
<path
    fill-rule="evenodd"
    clip-rule="evenodd"
    d="M0 8.98864C0 4.02691 3.724 0 8.3125 0H67.6875C72.276 0 76 4.02691 76 8.98864V104.011C76 106.395 75.1242 108.682 73.5653 110.367C72.0064 112.053 69.8921 113 67.6875 113H8.3125C6.10789 113 3.99357 112.053 2.43468 110.367C0.875779 108.682 0 106.395 0 104.011V8.98864ZM8.3125 7.70455C7.99756 7.70455 7.69551 7.83983 7.47281 8.08065C7.25011 8.32146 7.125 8.64807 7.125 8.98864V104.011C7.125 104.72 7.657 105.295 8.3125 105.295H67.6875C68.0024 105.295 68.3045 105.16 68.5272 104.919C68.7499 104.679 68.875 104.352 68.875 104.011V8.98864C68.875 8.64807 68.7499 8.32146 68.5272 8.08065C68.3045 7.83983 68.0024 7.70455 67.6875 7.70455H8.3125Z"
    fill="black"
  />
</svg>
