<svg xmlns="http://www.w3.org/2000/svg" width="22.679" height="22.68" viewBox="0 0 22.679 22.68"><defs><style>.a{fill:#172b4d;}</style></defs><g transform="translate(0 0)"><path class="a" d="M8.741,7.56H1.654A1.656,1.656,0,0,1,0,5.906V1.654A1.655,1.655,0,0,1,1.654,0H8.741a1.656,1.656,0,0,1,1.654,1.654V5.906A1.656,1.656,0,0,1,8.741,7.56ZM1.654,1.418a.236.236,0,0,0-.236.236V5.906a.236.236,0,0,0,.236.236H8.741a.236.236,0,0,0,.236-.236V1.654a.236.236,0,0,0-.236-.236Zm0,0" transform="translate(0 0)"/><path class="a" d="M8.741,226.562H1.654A1.655,1.655,0,0,1,0,224.908v-9.922a1.656,1.656,0,0,1,1.654-1.654H8.741a1.656,1.656,0,0,1,1.654,1.654v9.922A1.656,1.656,0,0,1,8.741,226.562ZM1.654,214.75a.236.236,0,0,0-.236.236v9.922a.236.236,0,0,0,.236.236H8.741a.236.236,0,0,0,.236-.236v-9.922a.236.236,0,0,0-.236-.236Zm0,0" transform="translate(0 -203.882)"/><path class="a" d="M286.073,348.892h-7.087a1.656,1.656,0,0,1-1.654-1.654v-4.252a1.656,1.656,0,0,1,1.654-1.654h7.087a1.656,1.656,0,0,1,1.654,1.654v4.252A1.655,1.655,0,0,1,286.073,348.892Zm-7.087-6.142a.236.236,0,0,0-.236.236v4.252a.236.236,0,0,0,.236.236h7.087a.236.236,0,0,0,.236-.236v-4.252a.236.236,0,0,0-.236-.236Zm0,0" transform="translate(-265.047 -326.212)"/><path class="a" d="M286.073,13.23h-7.087a1.656,1.656,0,0,1-1.654-1.654V1.654A1.656,1.656,0,0,1,278.986,0h7.087a1.655,1.655,0,0,1,1.654,1.654v9.922A1.655,1.655,0,0,1,286.073,13.23ZM278.986,1.418a.236.236,0,0,0-.236.236v9.922a.236.236,0,0,0,.236.236h7.087a.236.236,0,0,0,.236-.236V1.654a.236.236,0,0,0-.236-.236Zm0,0" transform="translate(-265.047 0)"/></g></svg>