<svg xmlns="http://www.w3.org/2000/svg" width="22.052" height="23.92" viewBox="0 0 22.052 23.92"><defs><style>.a{fill:#172b4d;fill-rule:evenodd;}</style></defs><path class="a" d="M12.028,1.415V9.521h4.065V1.415a2.032,2.032,0,0,0-4.065,0Zm-10,3.538a.7.7,0,0,1,.991-.991l.384.384L4.648,3.105a2.169,2.169,0,1,0,.781,1.2L3.9,5.833a.7.7,0,0,1-.991,0ZM5.644,2.109l.88-.88a.7.7,0,0,1,.991.991l-1,1a3.572,3.572,0,1,1-.87-1.111Zm-6.7,14.653a.7.7,0,0,0-.7.7.7.7,0,0,0,.7.7.7.7,0,0,0,.7-.7A.7.7,0,0,0-1.053,16.762Zm2.8,1.4a.7.7,0,0,1,0-1.4H8.524a.7.7,0,0,1,0,1.4Zm-2.8-4.2a.7.7,0,0,0-.7.7.7.7,0,0,0,.7.7.7.7,0,0,0,.7-.7A.7.7,0,0,0-1.053,13.959Zm2.8,1.4a.7.7,0,1,1,0-1.4H8.524a.7.7,0,1,1,0,1.4Zm10.278-4.438V21.2a.7.7,0,0,1-.7.7H-3.856a.7.7,0,0,1-.7-.7V1.345A3.369,3.369,0,0,1-1.193-2.019H14.061a3.442,3.442,0,0,1,3.434,3.434v8.806a.7.7,0,0,1-.7.7ZM11.3-.617a3.414,3.414,0,0,0-.67,2.032V20.5H-3.155V1.345A1.967,1.967,0,0,1-1.193-.617ZM-1.053,11.156a.7.7,0,0,0-.7.7.7.7,0,0,0,.7.7.7.7,0,0,0,.7-.7A.7.7,0,0,0-1.053,11.156Zm2.8,1.4H8.524a.7.7,0,0,0,0-1.4H1.75a.7.7,0,0,0,0,1.4Zm0,0" transform="translate(4.557 2.019)"/></svg>