<svg xmlns="http://www.w3.org/2000/svg" width="25" height="25" viewBox="0 0 25 25"><defs><style>.a{fill:#f5365c;}.b{fill:#fff;}</style></defs><g transform="translate(0.386)"><circle class="a" cx="12.5" cy="12.5" r="12.5" transform="translate(-0.386)"/><g transform="translate(6.614 5)"><path class="b" d="M176.415,243.03a.333.333,0,0,0,.34.325h8.624a.333.333,0,0,0,.34-.325V232.487h-9.3V243.03Zm6.563-8.748h1.274v7.094h-1.274Zm-2.548,0H181.7v7.094H180.43Zm-2.548,0h1.274v7.094h-1.274Z" transform="translate(-175.528 -228.585)"/><path class="b" d="M130.256,1.5V.325A.332.332,0,0,0,129.919,0h-5.012a.331.331,0,0,0-.337.325V1.9h-2.358a.332.332,0,0,0-.337.325V3.05a.332.332,0,0,0,.337.325h10.4a.332.332,0,0,0,.337-.325V2.227a.332.332,0,0,0-.337-.325h-2.358V1.5Zm-1.265.34h-3.157V1.22h3.157v.615Z" transform="translate(-121.874)"/></g></g></svg>