<svg xmlns="http://www.w3.org/2000/svg" width="26.871" height="23.407" viewBox="0 0 26.871 23.407"><defs><style>.a{fill:#172b4d;}</style></defs><g transform="translate(0 -33)"><path class="a" d="M173.566,42.132A4.566,4.566,0,1,0,169,37.566,4.571,4.571,0,0,0,173.566,42.132Zm0-7.557a2.992,2.992,0,1,1-2.992,2.992A2.995,2.995,0,0,1,173.566,34.574Z" transform="translate(-160.13)"/><path class="a" d="M379.887,102.773A2.887,2.887,0,1,0,377,99.887,2.89,2.89,0,0,0,379.887,102.773Zm0-4.2a1.312,1.312,0,1,1-1.312,1.312A1.314,1.314,0,0,1,379.887,98.574Z" transform="translate(-357.214 -60.641)"/><path class="a" d="M23.308,241H22.09a3.569,3.569,0,0,0-3.238,2.065A6.336,6.336,0,0,0,14.169,241H12.7a6.336,6.336,0,0,0-4.683,2.065A3.569,3.569,0,0,0,4.781,241H3.564A3.557,3.557,0,0,0,0,244.542v5.732a1.542,1.542,0,0,0,1.544,1.538H6.358a1.84,1.84,0,0,0,1.831,1.679H18.683a1.84,1.84,0,0,0,1.831-1.679h4.759a1.6,1.6,0,0,0,1.6-1.592v-5.677A3.557,3.557,0,0,0,23.308,241ZM1.574,244.542a1.981,1.981,0,0,1,1.989-1.968H4.781a1.981,1.981,0,0,1,1.989,1.968v.539c-.529,1.378-.42,2.2-.42,5.156H1.574Zm17.372,7.111a.264.264,0,0,1-.264.264H8.188a.264.264,0,0,1-.264-.264v-4.3a4.782,4.782,0,0,1,4.777-4.777h1.467a4.782,4.782,0,0,1,4.777,4.777Zm6.35-1.434c0,.027.293.018-4.776.018,0-2.973.109-3.78-.42-5.156v-.539a1.981,1.981,0,0,1,1.989-1.968h1.218a1.981,1.981,0,0,1,1.989,1.968Z" transform="translate(0 -197.084)"/><path class="a" d="M27.887,102.773A2.887,2.887,0,1,0,25,99.887,2.89,2.89,0,0,0,27.887,102.773Zm0-4.2a1.312,1.312,0,1,1-1.312,1.312A1.314,1.314,0,0,1,27.887,98.574Z" transform="translate(-23.688 -60.641)"/></g></svg>