<svg xmlns="http://www.w3.org/2000/svg" width="63" height="63" viewBox="0 0 63 63"><defs><style>.a{fill:#172b4d;}.b{fill:#fff;}</style></defs><g transform="translate(-868.49 -247.49)"><circle class="a" cx="31.5" cy="31.5" r="31.5" transform="translate(868.49 247.49)"/><g transform="translate(885.918 261.838)"><path class="b" d="M223.2,154.7a.8.8,0,0,0-.8.8v15.186a.8.8,0,0,0,1.607,0V155.507A.8.8,0,0,0,223.2,154.7Zm0,0" transform="translate(-204.528 -142.273)"/><path class="b" d="M105.2,154.7a.8.8,0,0,0-.8.8v15.186a.8.8,0,1,0,1.607,0V155.507A.8.8,0,0,0,105.2,154.7Zm0,0" transform="translate(-96.009 -142.273)"/><path class="b" d="M2.279,10.213v19.8a4.433,4.433,0,0,0,1.179,3.057,3.957,3.957,0,0,0,2.871,1.241h15.2A3.956,3.956,0,0,0,24.4,33.067a4.433,4.433,0,0,0,1.179-3.057v-19.8a3.069,3.069,0,0,0-.787-6.036H20.679v-1A3.156,3.156,0,0,0,17.5,0H10.362A3.156,3.156,0,0,0,7.18,3.172v1H3.066a3.069,3.069,0,0,0-.787,6.036ZM21.531,32.7H6.328a2.545,2.545,0,0,1-2.443-2.692V10.283H23.973V30.009A2.545,2.545,0,0,1,21.531,32.7ZM8.787,3.172a1.548,1.548,0,0,1,1.575-1.567H17.5a1.548,1.548,0,0,1,1.575,1.567v1H8.787ZM3.066,5.784H24.793a1.446,1.446,0,0,1,0,2.893H3.066a1.446,1.446,0,1,1,0-2.893Zm0,0" transform="translate(0.003 0.002)"/><path class="b" d="M164.2,154.7a.8.8,0,0,0-.8.8v15.186a.8.8,0,0,0,1.607,0V155.507A.8.8,0,0,0,164.2,154.7Zm0,0" transform="translate(-150.269 -142.273)"/></g></g></svg>