<svg xmlns="http://www.w3.org/2000/svg" width="21.904" height="21.904" viewBox="0 0 21.904 21.904"><defs><style>.a{fill:#172b4d;}</style></defs><path class="a" d="M19.337,1.711H18.31V0H16.6V1.711H5.3V0H3.594V1.711H2.567A2.57,2.57,0,0,0,0,4.278V19.337A2.57,2.57,0,0,0,2.567,21.9h16.77A2.57,2.57,0,0,0,21.9,19.337V4.278A2.57,2.57,0,0,0,19.337,1.711Zm.856,17.626a.857.857,0,0,1-.856.856H2.567a.857.857,0,0,1-.856-.856V8.043H20.192Zm0-13.005H1.711V4.278a.857.857,0,0,1,.856-.856H3.594V5.134H5.3V3.422H16.6V5.134H18.31V3.422h1.027a.857.857,0,0,1,.856.856Z"/><g transform="translate(3.283 9.653)"><g transform="translate(0 0)"><rect class="a" width="2" height="2" transform="translate(-0.379 0.251)"/></g></g><g transform="translate(6.713 9.653)"><g transform="translate(0 0)"><rect class="a" width="1" height="2" transform="translate(0.191 0.251)"/></g></g><g transform="translate(10.143 9.653)"><g transform="translate(0 0)"><rect class="a" width="2" height="2" transform="translate(-0.239 0.251)"/></g></g><g transform="translate(13.573 9.653)"><g transform="translate(0 0)"><rect class="a" width="1" height="2" transform="translate(0.331 0.251)"/></g></g><g transform="translate(17.003 9.653)"><g transform="translate(0 0)"><rect class="a" width="2" height="2" transform="translate(-0.1 0.251)"/></g></g><g transform="translate(3.283 13.083)"><g transform="translate(0 0)"><rect class="a" width="2" height="2" transform="translate(-0.379 -0.179)"/></g></g><g transform="translate(6.713 13.083)"><g transform="translate(0 0)"><rect class="a" width="1" height="2" transform="translate(0.191 -0.179)"/></g></g><g transform="translate(10.143 13.083)"><g transform="translate(0 0)"><rect class="a" width="2" height="2" transform="translate(-0.239 -0.179)"/></g></g><g transform="translate(13.573 13.083)"><g transform="translate(0 0)"><rect class="a" width="1" height="2" transform="translate(0.331 -0.179)"/></g></g><g transform="translate(3.283 16.513)"><g transform="translate(0 0)"><rect class="a" width="2" height="2" transform="translate(-0.379 0.39)"/></g></g><g transform="translate(6.713 16.513)"><g transform="translate(0 0)"><rect class="a" width="1" height="2" transform="translate(0.191 0.39)"/></g></g><g transform="translate(10.143 16.513)"><g transform="translate(0 0)"><rect class="a" width="2" height="2" transform="translate(-0.239 0.39)"/></g></g><g transform="translate(13.573 16.513)"><g transform="translate(0 0)"><rect class="a" width="1" height="2" transform="translate(0.331 0.39)"/></g></g><g transform="translate(17.003 13.083)"><g transform="translate(0 0)"><rect class="a" width="2" height="2" transform="translate(-0.1 -0.179)"/></g></g></svg>