<svg xmlns="http://www.w3.org/2000/svg" width="23.406" height="23.406" viewBox="0 0 23.406 23.406"><defs><style>.a{fill:#172b4d;stroke:#172b4d;stroke-width:0.5px;}</style></defs><path class="a" d="M26.846,7.156,24.435,2.333A.6.6,0,0,0,23.892,2H7.014a.6.6,0,0,0-.54.333L4.063,7.156A1.073,1.073,0,0,0,4,7.425V24.3a.6.6,0,0,0,.6.6H26.3a.6.6,0,0,0,.6-.6V7.425a1.073,1.073,0,0,0-.06-.269Zm-1.518-.333H18.334l-.9-3.617h6.088ZM13.645,8.028h3.617v5.655l-1.539-.77a.6.6,0,0,0-.539,0l-1.539.77Zm2.543-4.822.9,3.617H13.814l.9-3.617Zm-8.8,0h6.088l-.9,3.617H5.578ZM25.7,23.7H5.206V8.028h7.234v6.631a.6.6,0,0,0,.872.54l2.142-1.071L17.595,15.2a.6.6,0,0,0,.872-.543V8.028H25.7Z" transform="translate(-3.75 -1.75)"/></svg>