<svg xmlns="http://www.w3.org/2000/svg" width="21.495" height="13.853" viewBox="0 0 21.495 13.853"><defs><style>.a{fill:#737f93;}</style></defs><path class="a" d="M0,91.008v13.853H21.495V91.008ZM6.581,93.24a2.245,2.245,0,1,1-2.245,2.245A2.247,2.247,0,0,1,6.581,93.24Zm3.426,9.263H8.747v-1.6A1.5,1.5,0,0,0,7.254,99.41h-1.3A1.5,1.5,0,0,0,4.46,100.9v1.6H3.2v-1.6a2.756,2.756,0,0,1,2.753-2.753h1.3a2.756,2.756,0,0,1,2.753,2.753Zm7.877-1.069H12.427v-1.259h5.458Zm0-2.87H12.427V97.3h5.458Zm0-2.87H12.427V94.435h5.458Z" transform="translate(0 -91.008)"/></svg>