<svg
  width="112"
  height="111"
  viewBox="0 0 112 111"
  fill="none"
  xmlns="http://www.w3.org/2000/svg"
>
<path
    d="M5.74184 61.218H11.2835V100.01C11.2835 106.122 16.2544 111.093 22.3668 111.093H88.8669C94.9793 111.093 99.9502 106.122 99.9502 100.01V61.218H105.492C106.588 61.2177 107.659 60.8926 108.57 60.2837C109.481 59.6747 110.191 58.8093 110.611 57.7969C111.03 56.7844 111.14 55.6703 110.926 54.5955C110.712 53.5207 110.185 52.5334 109.41 51.7584L59.5348 1.88335C59.0206 1.36828 58.4099 0.959648 57.7376 0.680842C57.0653 0.402037 56.3447 0.25853 55.6168 0.25853C54.889 0.25853 54.1684 0.402037 53.4961 0.680842C52.8238 0.959648 52.2131 1.36828 51.6989 1.88335L1.82388 51.7584C1.04911 52.5334 0.521503 53.5207 0.307774 54.5955C0.0940457 55.6703 0.203788 56.7844 0.623126 57.7969C1.04246 58.8093 1.75257 59.6747 2.66367 60.2837C3.57478 60.8926 4.64598 61.2177 5.74184 61.218ZM44.5335 100.01V72.3013H66.7002V100.01H44.5335ZM55.6168 13.6372L88.8669 46.8872V72.3013L88.8724 100.01H77.7835V72.3013C77.7835 66.1889 72.8126 61.218 66.7002 61.218H44.5335C38.4211 61.218 33.4502 66.1889 33.4502 72.3013V100.01H22.3668V46.8872L55.6168 13.6372Z"
    fill="#000"
  />
</svg>
