<svg xmlns="http://www.w3.org/2000/svg" width="22.468" height="22.468" viewBox="0 0 22.468 22.468"><defs><style>.a{fill:#172b4d;}</style></defs><g transform="translate(0)"><g transform="translate(0)"><path class="a" d="M19.178,14.524a11.191,11.191,0,0,0-4.269-2.678,6.495,6.495,0,1,0-7.349,0A11.252,11.252,0,0,0,0,22.468H1.755a9.479,9.479,0,1,1,18.957,0h1.755A11.161,11.161,0,0,0,19.178,14.524Zm-7.944-3.29a4.739,4.739,0,1,1,4.739-4.739A4.745,4.745,0,0,1,11.234,11.234Z" transform="translate(0)"/></g></g></svg>