<svg xmlns="http://www.w3.org/2000/svg" width="16.16" height="24.323" viewBox="0 0 16.16 24.323"><defs><style>.a{fill:#737f93;}</style></defs><g transform="translate(0 -29.119)"><g transform="translate(0 29.119)"><path class="a" d="M120.623,29.135c-.809.139-5.885,1.137-6.792,1.32a2.229,2.229,0,0,0-1.788,2.185v2.816a4.93,4.93,0,1,0,9.861,0V30.215A1.1,1.1,0,0,0,120.623,29.135Z" transform="translate(-108.921 -29.119)"/><path class="a" d="M13.931,482.653H11.975a.836.836,0,0,0-.814.645l-1.154,4.913a2.005,2.005,0,0,1-.733,1.134,4.385,4.385,0,0,0,.051-1.278,3.81,3.81,0,0,0-.1-.55l-.8-3.075L9,483.169a.365.365,0,0,0-.333-.516H7.489a.365.365,0,0,0-.333.516l.577,1.273-.8,3.075a3.807,3.807,0,0,0-.1.55,4.386,4.386,0,0,0,.051,1.278,2.006,2.006,0,0,1-.733-1.134L5,483.3a.836.836,0,0,0-.814-.645H2.229A2.229,2.229,0,0,0,0,484.882V493.5a.836.836,0,0,0,.836.836H15.324a.836.836,0,0,0,.836-.836v-8.622A2.229,2.229,0,0,0,13.931,482.653Z" transform="translate(0 -470.017)"/></g></g></svg>