<svg xmlns="http://www.w3.org/2000/svg" width="25.245" height="25.245" viewBox="0 0 25.245 25.245"><defs><style>.a{fill:#5e72e4;}</style></defs><path class="a" d="M12.623,0A12.622,12.622,0,1,0,25.246,12.622,12.622,12.622,0,0,0,12.623,0Zm6,9.083-1.2,1.2-2.44-2.44-.926.926,2.44,2.44-5.986,5.985-2.44-2.44-.926.926,2.44,2.44-.6.6L8.979,18.7a.472.472,0,0,1-.3.217L6.4,19.429a.473.473,0,0,1-.565-.565l.507-2.275a.474.474,0,0,1,.217-.3l-.012-.012,9.633-9.633a.362.362,0,0,1,.512,0l1.929,1.928A.362.362,0,0,1,18.623,9.083Z" transform="translate(-0.001)"/></svg>