<svg width="119" height="116" viewBox="0 0 119 116" fill="none" xmlns="http://www.w3.org/2000/svg">
<path d="M59.5 116V53.6552M59.5 57.5517V80.931M59.5 57.5517C59.5 49.2843 56.0985 41.3555 50.0437 35.5095C43.989 29.6635 35.777 26.3793 27.2143 26.3793H3V49.7586C3 58.0261 6.40152 65.9549 12.4563 71.8008C18.511 77.6468 26.723 80.931 35.2857 80.931H59.5M59.5 57.5517H83.7143C92.277 57.5517 100.489 54.2675 106.544 48.4215C112.598 42.5756 116 34.6467 116 26.3793V3H91.7857C83.223 3 75.011 6.28423 68.9563 12.1302C62.9015 17.9761 59.5 25.905 59.5 34.1724V57.5517ZM59.5 57.5517L91.7857 26.3793M59.5 80.931L27.2143 49.7586" stroke="white" stroke-width="4.32143"/>
</svg>
