<svg xmlns="http://www.w3.org/2000/svg" width="28.551" height="23.815" viewBox="0 0 28.551 23.815"><defs><style>.a{opacity:0.7;}.b{fill:#172b4d;}</style></defs><g class="a" transform="translate(0 -42.468)"><path class="b" d="M27.993,47.257,14.554,42.516a.836.836,0,0,0-.557,0L.558,47.257a.836.836,0,0,0,0,1.577L14,53.612a.836.836,0,0,0,.56,0l13.439-4.778a.836.836,0,0,0,0-1.577Z"/><path class="b" d="M433.364,205.03v-7.3l-1.673.595v6.7a1.68,1.68,0,0,0,0,2.913v4.111a.836.836,0,1,0,1.673,0v-4.111a1.68,1.68,0,0,0,0-2.913Z" transform="translate(-406.822 -146.608)"/><path class="b" d="M113.84,225.243A2.5,2.5,0,0,1,113,225.1l-7.555-2.686v3.681c0,.9.939,1.662,2.792,2.263a19.719,19.719,0,0,0,11.207,0c1.853-.6,2.792-1.363,2.792-2.263v-3.681L114.68,225.1A2.5,2.5,0,0,1,113.84,225.243Z" transform="translate(-99.564 -169.91)"/></g></svg>