<svg xmlns="http://www.w3.org/2000/svg" width="20.864" height="23.2" viewBox="0 0 20.864 23.2"><defs><style>.a{fill:#172b4d;stroke:#172b4d;stroke-width:0.2px;}</style></defs><g transform="translate(-21.9 -8.9)"><g transform="translate(22 9)"><path class="a" d="M42.38,16.336l-2.135-.712-.767-1.533a4.92,4.92,0,0,0,1.332-2.6l.1-.573h.818A1.349,1.349,0,0,0,43.07,9.568V6.738a6.738,6.738,0,0,0-13.477,0v2.83a1.35,1.35,0,0,0,.9,1.27v.526a1.349,1.349,0,0,0,1.348,1.348h.395a4.873,4.873,0,0,0,.754,1.167c.064.073.13.144.2.213l-.766,1.532-2.135.712A6.621,6.621,0,0,0,26,22.551a.449.449,0,0,0,.449.449H46.215a.449.449,0,0,0,.449-.449A6.621,6.621,0,0,0,42.38,16.336Zm-.208-6.768a.45.45,0,0,1-.449.449h-.686c.114-.885.19-1.826.221-2.753,0-.026,0-.052,0-.077h.912Zm-11.23.449a.45.45,0,0,1-.449-.449V7.188H31.4q0,.07,0,.141v0h0c.031.9.107,1.818.218,2.683h-.686Zm.9,1.8a.45.45,0,0,1-.449-.449v-.449h.368l.1.573c.018.109.041.217.067.325Zm-.448-5.525h-.882a5.84,5.84,0,0,1,11.645,0h-.882A4.55,4.55,0,0,0,36.734,1.8h-.8A4.55,4.55,0,0,0,31.391,6.289ZM35.93,2.7h.8a3.653,3.653,0,0,1,3.641,3.657c0,.141,0,.264,0,.376,0,0,0,0,0,0l-.562-.08a7.218,7.218,0,0,1-4.058-2.029.449.449,0,0,0-.318-.132A4.064,4.064,0,0,0,32.309,5.97,3.652,3.652,0,0,1,35.93,2.7Zm-3.078,9.119a25.677,25.677,0,0,1-.539-4.36l.6-.806A3.162,3.162,0,0,1,35.256,5.4a8.125,8.125,0,0,0,4.426,2.147l.661.095c-.044.938-.135,1.88-.264,2.746h0c-.041.278-.074.458-.156.958a3.816,3.816,0,0,1-2.708,3.069,3.534,3.534,0,0,1-3.968-1.7h.916a1.35,1.35,0,0,0,1.27.9h.9a1.348,1.348,0,1,0,0-2.7h-.9a1.348,1.348,0,0,0-1.271.9Zm2.543,3.5a4.506,4.506,0,0,0,1.671.038l-.794.839Zm.259,1.53L34.23,18.356a17.116,17.116,0,0,1-1.006-2.332l.535-1.07ZM38.828,14.8l.611,1.222a17.112,17.112,0,0,1-1.006,2.333l-1.525-1.525Zm-3.844-2.538a.449.449,0,0,1,.449-.449h.9a.449.449,0,1,1,0,.9h-.9A.45.45,0,0,1,34.984,12.264ZM26.916,22.1a5.677,5.677,0,0,1,3.652-4.913l1.891-.63a18.008,18.008,0,0,0,1.279,2.773l0,0h0a18.012,18.012,0,0,0,1.23,1.878l.553.887Zm9.416-.4-.609-.978-.022-.032a17.128,17.128,0,0,1-1.012-1.512l1.6-1.694,1.688,1.688a17.11,17.11,0,0,1-1.016,1.518C36.941,20.72,36.972,20.674,36.332,21.7Zm.809.4.553-.887a18.006,18.006,0,0,0,1.238-1.893l.007-.012h0a17.993,17.993,0,0,0,1.265-2.75l1.891.63A5.677,5.677,0,0,1,45.748,22.1H37.141Z" transform="translate(-26 0)"/></g></g></svg>