<svg xmlns="http://www.w3.org/2000/svg" xmlns:xlink="http://www.w3.org/1999/xlink" width="199.531" height="148.684" viewBox="0 0 199.531 148.684"><defs><style>.a,.w{fill:#6d6afd;}.a,.aa,.ab,.ac,.ad,.ae,.af,.ag,.ah,.ai,.aj,.ak,.al,.am,.an,.ao,.ap,.aq,.ar,.as,.at,.au,.av,.aw,.ax,.ay,.az,.b,.ba,.bb,.bc,.bd,.be,.bf,.bg,.bh,.bi,.bj,.bk,.bl,.bm,.bn,.bo,.bp,.bq,.br,.bs,.bt,.bu,.bv,.bw,.bx,.by,.bz,.c,.d,.e,.f,.g,.h,.i,.j,.k,.l,.m,.n,.o,.p,.q,.r,.s,.t,.u,.v,.w,.x,.y,.z{fill-rule:evenodd;}.b{fill:url(#a);}.ad,.c,.i{fill:#fff;}.d,.f{fill:#0887de;}.d{opacity:0.47;}.ac,.e,.g,.h,.i,.j,.v{opacity:0.5;}.e{fill:url(#b);}.f{opacity:0.27;}.g{fill:url(#c);}.h{fill:url(#d);}.j{fill:#9871d0;}.ac,.ai,.al,.bp,.j,.v{mix-blend-mode:multiply;isolation:isolate;}.k{fill:#303a7d;}.l{fill:#3e4992;}.m{fill:#4d7db2;}.n{fill:#f1a4fd;}.o{fill:url(#e);}.p{fill:#e23b93;}.q{fill:#f2f4ff;}.r{fill:#c5dbf1;}.s{fill:#dce8f8;}.t{fill:url(#f);}.u{fill:#fb84b6;}.v{fill:url(#g);}.aa,.ab,.ad,.w{opacity:0.2;}.x{fill:url(#h);}.y{fill:url(#i);}.z{fill:#ffdb59;}.aa{fill:url(#j);}.ab{fill:url(#k);}.ac{fill:url(#l);}.ae{fill:#87aedd;opacity:0.71;}.af{fill:#ffa495;}.ag{fill:#193161;}.ah{fill:#163f60;}.ai{fill:#17acc8;}.ai,.bp{opacity:0.35;}.aj{fill:url(#m);}.ak{fill:url(#n);}.al{fill:#1e2353;opacity:0.3;}.am{fill:url(#o);}.an{fill:url(#p);}.ao{fill:#1b496d;}.ap{fill:#e7a376;}.aq{fill:url(#q);}.ar{fill:url(#r);}.as{fill:#ffa698;}.at{fill:#ffb49c;}.au{fill:url(#s);}.av{fill:url(#t);}.aw{fill:#6ad2a9;}.ax{fill:url(#u);}.ay{fill:url(#v);}.az{fill:url(#w);}.ba{fill:#f0b186;}.bb{fill:#d03286;}.bc{fill:#f1920e;}.bd{fill:url(#x);}.be{fill:#ffd463;}.bf{fill:#ffc426;}.bg{fill:#f964b1;}.bh{fill:#fb85b6;}.bi{fill:url(#y);}.bj{fill:url(#z);}.bk{fill:url(#aa);}.bl{fill:#21389b;}.bm{fill:url(#ab);}.bn{fill:url(#ac);}.bo{fill:#d9b845;}.bp{fill:#6266d7;}.bq{fill:#16193b;}.br{fill:url(#ad);}.bs{fill:url(#ae);}.bt{fill:#e8c447;}.bu{fill:#6f6f6f;}.bv{fill:url(#af);}.bw{fill:url(#ag);}.bx{fill:url(#ah);}.by{fill:#562e65;}.bz{fill:url(#ai);}</style><linearGradient id="a" x1="0.493" y1="0.559" x2="0.654" y2="0.222" gradientUnits="objectBoundingBox"><stop offset="0" stop-color="#6d6afe"/><stop offset="1" stop-color="#3fb0f7"/></linearGradient><linearGradient id="b" x1="0.501" y1="0.117" x2="0.499" y2="0.79" xlink:href="#a"/><linearGradient id="c" x1="0.289" y1="0.243" x2="0.596" y2="0.617" gradientUnits="objectBoundingBox"><stop offset="0" stop-color="#cee8ff"/><stop offset="1" stop-color="#51b5ff"/></linearGradient><linearGradient id="d" x1="0.289" y1="0.243" x2="0.596" y2="0.617" gradientUnits="objectBoundingBox"><stop offset="0" stop-color="#cee8ff"/><stop offset="1" stop-color="#aadbff"/></linearGradient><linearGradient id="e" x1="0.624" y1="0.61" x2="0.174" y2="0.213" gradientUnits="objectBoundingBox"><stop offset="0" stop-color="#fa5db1"/><stop offset="1" stop-color="#febfbf"/></linearGradient><linearGradient id="f" x1="0.911" y1="0.787" x2="0.041" y2="0.266" xlink:href="#e"/><linearGradient id="g" x1="0.39" y1="0.766" x2="0.778" y2="0.019" gradientUnits="objectBoundingBox"><stop offset="0" stop-color="#965cf2"/><stop offset="1" stop-color="#ff8adc"/></linearGradient><linearGradient id="h" x1="0.49" y1="0.906" x2="0.513" y2="-0.021" xlink:href="#a"/><linearGradient id="i" x1="0.847" y1="0.29" x2="0.547" y2="0.687" gradientUnits="objectBoundingBox"><stop offset="0" stop-color="#ff66bc"/><stop offset="0.56" stop-color="#ff8adc"/><stop offset="1" stop-color="#ffbba8"/></linearGradient><linearGradient id="j" x1="0.73" y1="0.469" x2="0.189" y2="0.542" xlink:href="#i"/><linearGradient id="k" x1="0.871" y1="1.353" x2="0.313" y2="-0.045" xlink:href="#a"/><linearGradient id="l" x1="0.609" y1="0.767" x2="0.186" y2="-0.049" xlink:href="#g"/><linearGradient id="m" x1="0.303" y1="0.261" x2="0.772" y2="0.775" gradientUnits="objectBoundingBox"><stop offset="0" stop-color="#3773c2"/><stop offset="1" stop-color="#214075"/></linearGradient><linearGradient id="n" x1="0.356" y1="0.321" x2="0.783" y2="0.982" xlink:href="#m"/><linearGradient id="o" x1="0.187" y1="0.257" x2="1.07" y2="0.737" xlink:href="#m"/><linearGradient id="p" x1="0.413" y1="0.35" x2="0.949" y2="0.693" xlink:href="#m"/><linearGradient id="q" x1="0.32" y1="0.284" x2="0.633" y2="0.643" gradientUnits="objectBoundingBox"><stop offset="0" stop-color="#ff8a78"/><stop offset="0.37" stop-color="#ff9584"/><stop offset="1" stop-color="#ffa799"/></linearGradient><linearGradient id="r" x1="0.389" y1="0.316" x2="0.563" y2="0.791" gradientUnits="objectBoundingBox"><stop offset="0" stop-color="#ffb89e"/><stop offset="1" stop-color="#ffa799"/></linearGradient><linearGradient id="s" x1="0.365" y1="0.262" x2="0.587" y2="0.921" gradientUnits="objectBoundingBox"><stop offset="0" stop-color="#5a2d68"/><stop offset="1" stop-color="#22043d"/></linearGradient><linearGradient id="t" x1="0.012" y1="0.187" x2="0.601" y2="0.755" gradientUnits="objectBoundingBox"><stop offset="0" stop-color="#8a4791"/><stop offset="1" stop-color="#562e65"/></linearGradient><linearGradient id="u" x1="0.535" y1="0.295" x2="0.425" y2="0.88" gradientUnits="objectBoundingBox"><stop offset="0" stop-color="#c4e0f5"/><stop offset="1" stop-color="#e1e8f6"/></linearGradient><linearGradient id="v" x1="0.436" y1="0.561" x2="0.654" y2="0.354" xlink:href="#a"/><linearGradient id="w" x1="0.592" y1="0.383" x2="0.414" y2="0.608" xlink:href="#u"/><linearGradient id="x" x1="0.347" y1="0.659" x2="0.52" y2="0.373" xlink:href="#e"/><linearGradient id="y" x1="0.45" y1="0.678" x2="0.506" y2="0.564" xlink:href="#e"/><linearGradient id="z" x1="0.518" y1="0.504" x2="2.064" y2="0.165" xlink:href="#e"/><linearGradient id="aa" x1="0.318" y1="0.201" x2="0.672" y2="0.829" gradientUnits="objectBoundingBox"><stop offset="0" stop-color="#1c8ef4"/><stop offset="1" stop-color="#00cfdd"/></linearGradient><linearGradient id="ab" x1="0.491" y1="0.104" x2="0.522" y2="0.968" gradientUnits="objectBoundingBox"><stop offset="0" stop-color="#ff8a78"/><stop offset="1" stop-color="#ffa799"/></linearGradient><linearGradient id="ac" x1="0.499" y1="0.25" x2="0.528" y2="1.44" xlink:href="#ab"/><linearGradient id="ad" x1="0.845" y1="0.229" x2="0.127" y2="0.771" gradientUnits="objectBoundingBox"><stop offset="0" stop-color="#3a407f"/><stop offset="1" stop-color="#1b2153"/></linearGradient><linearGradient id="ae" x1="0.773" y1="0.21" x2="-0.151" y2="0.777" xlink:href="#ad"/><linearGradient id="af" x1="0.472" y1="0.6" x2="0.536" y2="0.458" xlink:href="#ab"/><linearGradient id="ag" x1="0.558" y1="0.429" x2="0.305" y2="0.659" xlink:href="#ab"/><linearGradient id="ah" x1="0.597" y1="0.241" x2="0.312" y2="0.78" xlink:href="#r"/><linearGradient id="ai" x1="0.653" y1="0.688" x2="0.447" y2="0.386" xlink:href="#t"/></defs><g transform="translate(-21.161 -7.46)"><g transform="translate(21.161 14.922)"><g transform="translate(153.315 11.645)"><path class="a" d="M2176.424,331.989a6.047,6.047,0,0,1,2.14,2.033c-.008-.154-.015.412-.01-.463s-.5-2.288.188-3a7.4,7.4,0,0,1,1.91-.878,2.828,2.828,0,0,1,2.069.361,7.814,7.814,0,0,1,2.938,3.314,13.859,13.859,0,0,1,1.223,4.806c0,.885,0,.306-.013.455a2.529,2.529,0,0,1,2.2.356,8.692,8.692,0,0,1,3,3.384,11.06,11.06,0,0,1,1.26,4.887,5.147,5.147,0,0,1-.783,2.991,4.343,4.343,0,0,1-2.147,1.351c-1.96.681-5.739-3.293-7.733-4.422l-6.315-3.573a7.835,7.835,0,0,1-2.9-3.346,10.773,10.773,0,0,1-1.157-4.767c.009-.931-.671-2.327.209-3A3.545,3.545,0,0,1,2176.424,331.989Z" transform="translate(-2171.18 -329.616)"/><path class="b" d="M2165.456,337.95a6.043,6.043,0,0,1,2.14,2.034c-.007-.154-.015.412-.01-.463a5.766,5.766,0,0,1,1.231-3.422,2.479,2.479,0,0,1,2.935-.091,7.811,7.811,0,0,1,2.938,3.314,13.864,13.864,0,0,1,1.223,4.806c0,.885-.005.306-.014.455a2.53,2.53,0,0,1,2.2.356,8.693,8.693,0,0,1,3,3.384,11.033,11.033,0,0,1,1.26,4.887,4.463,4.463,0,0,1-1.247,3.508,2.534,2.534,0,0,1-3.01.038l-6.406-3.625-6.316-3.573a7.834,7.834,0,0,1-2.9-3.346,10.776,10.776,0,0,1-1.157-4.767,4.43,4.43,0,0,1,1.228-3.408A2.629,2.629,0,0,1,2165.456,337.95Z" transform="translate(-2161.321 -335.095)"/><g transform="translate(4.384 5.71)"><path class="c" d="M2217.569,405.35l-1.964-1.133,3.089,5.35,3.109-1.772-1.963-1.134.005-5.037-2.27-1.311Z" transform="translate(-2215.605 -400.313)"/><path class="c" d="M2276.005,441.71l1.964,1.133-3.089-5.35-3.108,1.772,1.963,1.134-.005,5.037,2.27,1.311Z" transform="translate(-2267.236 -434.491)"/></g></g><g transform="translate(42.518 17.676)"><path class="d" d="M794.02,414.235a10.057,10.057,0,0,1-4.553-7.118c-.179-2.58,1.569-3.579,3.906-2.228a10.062,10.062,0,0,1,4.552,7.118C798.1,414.589,796.355,415.585,794.02,414.235Z" transform="translate(-789.454 -404.287)"/><path class="c" d="M808.252,446.819l.62.31-2.751,4.187-2.428-3.6.8.313,1.282,1.217Z" transform="translate(-802.543 -443.384)"/></g><path class="e" d="M336.119,185.427a3.908,3.908,0,1,1-3.908,3.908A3.908,3.908,0,0,1,336.119,185.427Z" transform="translate(-326.622 -185.427)"/><path class="f" d="M892.567,1552.609a11.261,11.261,0,1,1-11.261,11.261,11.261,11.261,0,0,1,11.261-11.261Zm0,3a8.262,8.262,0,1,0,8.263,8.262A8.262,8.262,0,0,0,892.567,1555.607Z" transform="translate(-831.37 -1442.19)"/><path class="g" d="M269.709,1274.734a6.7,6.7,0,1,1-6.7,6.7,6.7,6.7,0,0,1,6.7-6.7Zm0,1.785a4.918,4.918,0,1,0,4.918,4.918A4.918,4.918,0,0,0,269.709,1276.519Z" transform="translate(-263.006 -1186.757)"/><path class="h" d="M2589.993,793.294l-2.627-1.448a2.3,2.3,0,0,1-.973-1.246l-1.009-3.192a2.256,2.256,0,0,0-.982-1.253c-.39-.216-.762-.185-.87.229l-.6,2.3c-.1.366-.444.464-.874.226l-2.623-1.454c-.941-.521-1.239.593-.428,1.627l2.246,2.859a1.8,1.8,0,0,1,.445,1.4l-.613,2.285a2.086,2.086,0,0,0,1.034,1.926.751.751,0,0,0,.554.1l1.993-.524a.766.766,0,0,1,.559.109,2,2,0,0,1,.59.526l2.243,2.866a1.975,1.975,0,0,0,.585.527c.607.336,1.1-.021.822-.895l-1.013-3.19c-.168-.52-.06-.926.263-1.01l2-.512C2591.429,795.368,2590.939,793.818,2589.993,793.294Z" transform="translate(-2391.523 -737.517)"/><path class="i" d="M2244.961,1140.025a12.708,12.708,0,0,1-5.766-9.986c.01-3.671,2.609-5.151,5.8-3.307a12.705,12.705,0,0,1,5.765,9.986c-.01,3.67-2.608,5.152-5.8,3.307Zm0,1.556c3.942,2.277,7.148.448,7.161-4.082a15.681,15.681,0,0,0-7.115-12.324c-3.941-2.275-7.148-.449-7.161,4.082A15.682,15.682,0,0,0,2244.957,1141.581Z" transform="translate(-2078.346 -1048.378)"/></g><g transform="translate(72.163 7.46)"><g transform="translate(44.535)"><path class="j" d="M1498.042,1341.5l-40.906-23.363c-1.518-.694-3.749-1.348-5.238-.441l-3.81,2.321c-.766.467-3.287,2.017-1.6,2.933,4.959,2.7,36.647,21.211,41.683,23.951a7.064,7.064,0,0,0,3.808.584,9.573,9.573,0,0,0,4.125-1.229l1.522-.938c1.076-.664,1.672-1.388,1.729-2.084C1499.41,1342.559,1498.974,1341.929,1498.042,1341.5Z" transform="translate(-1445.918 -1218.382)"/><g transform="translate(0.477)"><path class="k" d="M1519.886,213.491c-.006,1.991-.716,3.393-1.851,4.052l-1.8,1.083c-6.179-2.637-3.886-33.949-4.262-42.851l1.9-46.717c-1.595-2.787-7.732-5.22-6.3-10.912l-18.109-8.477c-.8-.547-21.937-12.785-18.144-15.08.634-.384,1.262-.77,1.889-1.134,1.4-.829,3.185-.316,4.5.44h0l36.035,20.669a13.9,13.9,0,0,1,6.3,10.912Z" transform="translate(-1469.324 -93.03)"/><path class="l" d="M1451.979,111.484c.005-1.952.681-3.338,1.777-4.014,1.154-.711,2.773-.634,4.564.4l36.035,20.668a13.9,13.9,0,0,1,6.3,10.912l-.15,88.016c-.011,4.008-2.854,5.628-6.342,3.614l-36.034-20.668a13.89,13.89,0,0,1-6.3-10.912Z" transform="translate(-1451.828 -105.875)"/><path class="m" d="M1476.029,162.4c.01-3.689,2.623-5.182,5.836-3.326l33.166,19.023a12.792,12.792,0,0,1,5.8,10.044l-.138,82.674c-.011,3.689-2.627,5.18-5.837,3.326l-33.166-19.023a12.784,12.784,0,0,1-5.8-10.044Z" transform="translate(-1473.946 -153.007)"/></g><g transform="translate(16.724 34.358)"><path class="n" d="M1678.746,530.983a10.068,10.068,0,0,1-4.567-7.911c.008-2.908,2.067-4.08,4.6-2.62a10.065,10.065,0,0,1,4.567,7.911c-.008,2.907-2.066,4.081-4.6,2.62Zm0,1.232c3.123,1.8,5.662.355,5.673-3.233a12.422,12.422,0,0,0-5.636-9.762c-3.122-1.8-5.662-.356-5.673,3.233A12.422,12.422,0,0,0,1678.743,532.215Z" transform="translate(-1671.482 -518.445)"/><g transform="translate(0 15.214)"><path class="c" d="M1695.677,707.194c0-.336.239-.467.531-.294l6.6,3.732a1.188,1.188,0,0,1,.527.923v.664c0,.335-.239.467-.531.294l-6.6-3.732a1.186,1.186,0,0,1-.528-.922Z" transform="translate(-1692.229 -706.824)"/><path class="i" d="M1652.99,721.078c0-.3.21-.412.468-.259,3.745,2.116,9.881,5.57,13.626,7.686a1.046,1.046,0,0,1,.465.813v.585c0,.3-.211.412-.468.259-3.745-2.116-9.881-5.57-13.626-7.686a1.044,1.044,0,0,1-.465-.812Z" transform="translate(-1652.99 -719.627)"/></g></g></g><g transform="translate(77.475 10.52)"><g transform="translate(6.182 2.496)"><path class="o" d="M1949.914,287.723l-19.6-11.392,4.551-21.6v-.017h0v-.02l0-.007h0l0-.007v-.008l0-.007h0l0-.008v0l0-.005,0-.006v0l0-.008h0l0-.007v-.008l0-.008h0l0-.009v0l0-.005,0-.007v0l0-.009v0l0-.007,0-.006v0l0-.009h0l0-.008,0,0,0,0,0-.008h0l0-.009v0l0-.006,0-.007v0l0-.009h0l0-.008,0-.005,0,0,0-.009h0l0-.009,0,0,0-.005,0-.007v0l.005-.009v0l0-.007,0-.006,0,0,.006-.009h0l.005-.008,0,0,0,0,.006-.008h0l.006-.008,0,0,0-.005.006-.008.006-.008h0l.005-.007,0,0,0,0,.007-.007.007-.008,0,0,0,0,.006-.006h0l.008-.007,0,0,.006,0,.005,0,0,0,.008-.006h0l.007-.005,0,0,0,0,.008-.005h0l.008-.005,0,0,.006,0a.322.322,0,0,1,.292-.014l19.6,11.391C1954.406,265.258,1951.8,281.353,1949.914,287.723Z" transform="translate(-1930.311 -254.19)"/><path class="p" d="M1934.861,260.892c8.233,9.435,18.053,15.261,17.093,23.449l-2.041,9.542-19.6-11.392Z" transform="translate(-1930.31 -260.351)"/></g><g transform="translate(4.51)"><path class="q" d="M1930.614,238.055l-.443,21.907-20.559-11.868.061-21.717Z" transform="translate(-1909.612 -226.127)"/><path class="r" d="M2164.231,370.495l.429-.25-.061,21.718-.429.248Z" transform="translate(-2143.611 -358.375)"/><path class="s" d="M1910.369,223.53l.432-.25,20.557,11.869-.429.25Z" transform="translate(-1910.308 -223.28)"/><path class="r" d="M1938.6,279.781l0,1.37-19.029-10.986,0-1.369,19.029,10.986Zm.043-15.746,0,1.369-19.029-10.986,0-1.369,19.027,10.986Zm-.006,2.248L1919.609,255.3l0,1.369,19.027,10.986,0-1.369Zm-.006,2.25L1919.6,257.548l0,1.369,19.027,10.985,0-1.369Zm-.006,2.25L1919.595,259.8l0,1.369,19.029,10.986,0-1.369Zm-.006,2.249-19.029-10.986,0,1.369,19.029,10.986,0-1.369Zm-.006,2.25L1919.582,264.3l0,1.369,19.029,10.986,0-1.369Zm-.006,2.25-19.029-10.986,0,1.369L1938.6,278.9Z" transform="translate(-1918.762 -250.645)"/></g><path class="t" d="M1874.25,303.988l4.673,16.433h0a1.969,1.969,0,0,0,.288.523l-19.6-11.39a.779.779,0,0,1-.289-.523l-4.673-16.434,0,0-.876-3.081a.8.8,0,0,1,.169-.557c.814.741,5.161,3.4,5.962,3.873,1.342,1.052,1.388,2.351,3.421,4.507a3.521,3.521,0,0,0,1.006.806Z" transform="translate(-1853.77 -283.657)"/><path class="p" d="M2107.459,401.1a.568.568,0,0,1,.1-.071c.153-.088.29-.05.337.1l4.629,16.3,4.55-21.6a.771.771,0,0,1,.333-.487.433.433,0,0,1,.094-.04c.188-.05.3.11.245.352l-4.577,21.744a3.251,3.251,0,0,1-.278.851.977.977,0,0,1-.368.416.319.319,0,0,1-.363.009.977.977,0,0,1-.265-.508l-4.674-16.435A.718.718,0,0,1,2107.459,401.1Z" transform="translate(-2086.737 -381.406)"/><path class="u" d="M1864.948,295.321l9.887,5.746c-.257-.126-.652.452-.584.727l-9.986-5.8a6.117,6.117,0,0,1-.833-.538c-1.42-1.121-2.089-2.657-3.016-3.9a3.979,3.979,0,0,0-.8-.805c-.246-.134-.377-.206-.333-.184l-5.511-3.244a.8.8,0,0,1,.17-.553c.1-.111.267-.248.416-.17l5.521,3.249c-.044-.021.087.05.333.184a3.971,3.971,0,0,1,.795.805c.981,1.315,1.683,2.793,3.275,4.047A5.191,5.191,0,0,0,1864.948,295.321Z" transform="translate(-1853.771 -281.463)"/></g><g transform="translate(28.965 5.093)"><path class="v" d="M1454.413,270.028c4.569,2.669,9.139,5.336,13.713,7.96a3.643,3.643,0,0,1,1.652,2.861l.048,38.394c0,1.051-.748,1.475-1.663.947-4.959-2.844-9.913-5.74-14.867-8.634l.023-3.956Z" transform="translate(-1437.129 -260.826)"/><path class="q" d="M1258.867,156.532l.761-.4a1.21,1.21,0,0,1,.97.172c9.106,5.223,18.193,10.63,27.3,15.853a3.422,3.422,0,0,1,1.551,2.686l.045,36.048a1.138,1.138,0,0,1-.385.952c-.286.212-.877.672-1.346.4-9.107-5.223-18.025-11.094-27.13-16.316a3.419,3.419,0,0,1-1.551-2.686Z" transform="translate(-1258.404 -156.088)"/><path class="c" d="M1253.135,161.448c0-.987.7-1.386,1.561-.89,9.106,5.223,18.194,10.629,27.3,15.853a3.421,3.421,0,0,1,1.551,2.686l.045,36.048c0,.986-.7,1.385-1.561.889-9.106-5.223-18.2-10.63-27.3-15.853a3.418,3.418,0,0,1-1.551-2.686Z" transform="translate(-1253.135 -160.001)"/><g transform="translate(1.851 6.278)"><g transform="translate(0.166)"><path class="w" d="M1280.135,233.882a3.85,3.85,0,0,1,2.48,3.281c.129,1.484-.773,2.421-2.015,2.092a3.85,3.85,0,0,1-2.48-3.281C1277.991,234.49,1278.893,233.553,1280.135,233.882Z" transform="translate(-1278.108 -233.816)"/><path class="x" d="M1292.1,249.557a2.076,2.076,0,0,1,1.337,1.769c.069.8-.417,1.305-1.086,1.128a2.076,2.076,0,0,1-1.337-1.769C1290.94,249.885,1291.426,249.38,1292.1,249.557Z" transform="translate(-1289.961 -248.253)"/><path class="w" d="M1342.345,267.657c0-.314.223-.437.5-.275l8.294,4.7a1.111,1.111,0,0,1,.494.864v.621c0,.314-.224.437-.5.275l-8.294-4.7a1.111,1.111,0,0,1-.494-.864Z" transform="translate(-1337.157 -264.605)"/><path class="w" d="M1342.345,297.581c0-.185.132-.258.294-.162l4.9,2.778a.656.656,0,0,1,.292.51v.367c0,.186-.132.258-.294.162l-4.9-2.778a.656.656,0,0,1-.292-.51Z" transform="translate(-1337.157 -292.243)"/></g><g transform="translate(0 9.946)"><g transform="translate(2.962 7.669)"><path class="y" d="M1312.722,460.65l5.278-8.718,2.665,9.68,2.708-3.3,3.374,10.379Z" transform="translate(-1312.722 -451.932)"/><path class="z" d="M1418.11,459.312a2.2,2.2,0,0,1,1.449,1.892c.075.865-.452,1.421-1.177,1.242a2.2,2.2,0,0,1-1.449-1.892C1416.858,459.688,1417.385,459.132,1418.11,459.312Z" transform="translate(-1408.51 -458.685)"/></g><path class="aa" d="M1276.1,358.437c0-1.312.933-1.843,2.076-1.183l16.959,9.617a4.548,4.548,0,0,1,2.062,3.572l-.049,14c0,1.312-.934,1.842-2.076,1.183l-16.958-9.617a4.546,4.546,0,0,1-2.062-3.572Z" transform="translate(-1276.048 -356.97)"/><path class="ab" d="M1571.062,524.851c0-1.312.933-1.843,2.076-1.183l2.694,1.528-.028,18.775-2.729-1.547a4.546,4.546,0,0,1-2.062-3.572Z" transform="translate(-1547.19 -509.944)"/></g></g></g><g transform="translate(37.465 56.681)"><path class="ac" d="M1452.215,845l23.169,12.406c2.081,1.2,3.126,4.832,3.12,7.224l-.09,12.006c-.007,2.392-1.7,3.358-3.784,2.157l-22.5-13.1Z" transform="translate(-1444.556 -840.945)"/><path class="q" d="M1365.422,797.417c0-.8-.283-1.3.062-1.744a3.825,3.825,0,0,1,1.306-.731,2.784,2.784,0,0,1,2.282.394l24.947,14.525a8,8,0,0,1,3.627,6.282l-.086,11.582a2.977,2.977,0,0,1-.7,2.134,3.121,3.121,0,0,1-1.585.758c-.523.043-.725-.441-1.365-.811l-24.947-14.525a8,8,0,0,1-3.627-6.282Z" transform="translate(-1364.754 -794.838)"/><path class="m" d="M1358.469,801.649c.006-2.308,1.641-3.241,3.651-2.081l24.947,14.525a8,8,0,0,1,3.627,6.283l-.086,11.582c-.007,2.307-1.643,3.24-3.651,2.081l-24.947-14.525a8,8,0,0,1-3.627-6.282Z" transform="translate(-1358.382 -798.728)"/><path class="ad" d="M1380.578,888.562c2.433.643,4.609,3.523,4.861,6.431s-1.516,4.744-3.949,4.1-4.609-3.523-4.861-6.431S1378.145,887.918,1380.578,888.562Z" transform="translate(-1375.133 -880.874)"/><path class="c" d="M1404.021,919.285a4.068,4.068,0,0,1,2.621,3.467c.136,1.568-.817,2.558-2.129,2.211a4.068,4.068,0,0,1-2.621-3.467c-.136-1.568.817-2.558,2.129-2.211Zm.115,1.331c-.7-.184-1.2.341-1.131,1.174a2.161,2.161,0,0,0,1.392,1.842c.7.184,1.2-.342,1.131-1.174A2.161,2.161,0,0,0,1404.136,920.616Z" transform="translate(-1398.366 -909.171)"/><path class="ad" d="M1502.506,954.76c0-.616.438-.858.974-.539l16.256,9.221a2.179,2.179,0,0,1,.968,1.693v1.218c0,.616-.438.857-.974.539l-16.256-9.221a2.177,2.177,0,0,1-.968-1.693Z" transform="translate(-1490.866 -941.219)"/><path class="ad" d="M1502.506,1013.409c0-.364.259-.507.575-.318l9.6,5.445a1.286,1.286,0,0,1,.572,1v.719c0,.364-.259.506-.575.318l-9.6-5.445a1.286,1.286,0,0,1-.572-1Z" transform="translate(-1490.866 -995.387)"/></g><g transform="translate(71.6 78.209)"><path class="ae" d="M1807.3,1753.4l-13.93-7.934c-1.518-.694-3.692-1.246-5.24-.441-1.41.734-3.732,2.235-4.759,2.821-.78.445-3.487,2.067-1.8,2.984,4.961,2.7,9.87,5.731,14.907,8.472a7.071,7.071,0,0,0,3.809.584,10.087,10.087,0,0,0,4.126-1.229l2.47-1.438a3.009,3.009,0,0,0,1.73-2.084C1808.674,1754.452,1808.237,1753.822,1807.3,1753.4Z" transform="translate(-1781.032 -1689.443)"/><g transform="translate(13.093 60.616)"><path class="c" d="M1951.157,1835.6c-.316-.007-1.38-1.007-2.388-.5-1.211.607-3.509.069-4.669.348-.207.05-.611-.1-.691.039-.25.444-.492,1.109.123,1.544a10.526,10.526,0,0,0,2.056.968,17.338,17.338,0,0,0,2.6.736,3.363,3.363,0,0,1,1.568.437,2.28,2.28,0,0,0,1.2.288,2.015,2.015,0,0,0,1.525-1.064,4.554,4.554,0,0,0-.012-1.688,8.542,8.542,0,0,0-.539-1.474Z" transform="translate(-1943.145 -1833.093)"/><path class="af" d="M2011.694,1812.286c.383.919.265,2.342,1.173,2.836a1.35,1.35,0,0,0,1.971-.61c.231-.526-.076-1.424-.008-2.579Z" transform="translate(-2006.158 -1811.934)"/><path class="ag" d="M1949.7,1825c-.7.2-2.616.067-3.829.165-.522.042-.99.038-1.234.512-.224.436-.107.809.4,1.169a8.6,8.6,0,0,0,1.855.91,17.369,17.369,0,0,0,2.6.736,3.366,3.366,0,0,1,1.568.437,2.281,2.281,0,0,0,1.2.288,2.105,2.105,0,0,0,1.524-1.131,4.189,4.189,0,0,0-.012-1.621,2.976,2.976,0,0,0-.089-.343c-.1-.914-.4-1.283-.682-1.127a1.759,1.759,0,0,0-.684.916.894.894,0,0,1-.529.5,1.045,1.045,0,0,1-1.166-.512,3.3,3.3,0,0,1-.319-.925q0-.047,0-.093c-.091-.8-.48-.729-.421-.561A.688.688,0,0,1,1949.7,1825Z" transform="translate(-1944.417 -1823.223)"/><path class="c" d="M1944.25,1839.418c.009.309-.464.338-.327.88-.228-.223.09-.863.231-.96C1944.21,1839.3,1944.26,1839.282,1944.25,1839.418Z" transform="translate(-1943.786 -1837.099)"/></g><g transform="translate(5.603 56.874)"><path class="c" d="M1858,1771.847c-.294-.115-.949-1.421-2.069-1.293a5.7,5.7,0,0,1-1.916-.276c-1.176-.334-2.815-1.385-3.094-1.214a1.1,1.1,0,0,0-.23,1.678,8.6,8.6,0,0,0,1.429,1.493,15.1,15.1,0,0,0,2.016,1.533c.647.359.862.327,1.322.949a2.159,2.159,0,0,0,1.024.648,2.434,2.434,0,0,0,2-.751,4.143,4.143,0,0,0,.363-2.493Z" transform="translate(-1850.405 -1768.767)"/><path class="af" d="M1922.25,1765.594c.018,1-.615,2.276.048,3.069a1.35,1.35,0,0,0,2.057.158c.408-.4.453-1.352.941-2.4Z" transform="translate(-1916.213 -1765.594)"/><path class="ag" d="M1855.742,1768.663l-.2-.055c-1.176-.334-2.747-1.145-3.027-.973a.873.873,0,0,0-.3,1.437,8.584,8.584,0,0,0,1.428,1.493,15.067,15.067,0,0,0,2.016,1.533c.647.359.861.327,1.322.949a2.165,2.165,0,0,0,1.024.648,2.5,2.5,0,0,0,2.029-.755,6,6,0,0,0,.413-1.728c.1-.886.037-1.336-.349-1.325a2.139,2.139,0,0,0-1.308.583c-.638.4-1.065-.116-1.169-.752a3.724,3.724,0,0,1,.058-.84c.01-.03.021-.059.033-.087.209-.776-.178-.854-.185-.676a.666.666,0,0,1-.592.678A5.211,5.211,0,0,1,1855.742,1768.663Z" transform="translate(-1851.836 -1767.449)"/><path class="c" d="M1851.866,1767.793c-.125.283-.564.105-.675.654-.109-.3.453-.74.622-.767C1851.883,1767.668,1851.934,1767.674,1851.866,1767.793Z" transform="translate(-1851.115 -1767.507)"/></g><path class="ah" d="M1975.531,1189.58c-2.339,2.714-2.374,2.925-6.943,5.609l-.869-1.711a22.694,22.694,0,0,1,3.983-6,23.192,23.192,0,0,1-4.683-4.4c-2.979-3.977-1.325-6.741,1.249-6.181,2.245.488,5.748,6.3,7.653,9.578C1976.716,1187.834,1976.908,1187.984,1975.531,1189.58Z" transform="translate(-1950.534 -1167.498)"/><path class="ai" d="M1971.244,1187.8a23.016,23.016,0,0,1-3.912-3.839c-2.98-3.977-1.239-6.661,1.335-6.1C1970.01,1178.268,1972.407,1181.109,1971.244,1187.8Z" transform="translate(-1950.846 -1168.384)"/><g transform="translate(10.946 26.935)"><path class="aj" d="M1917.929,1397.942c-.257,2.886-1.7,12.1-1.3,14.633.605,3.8.432,8.4.426,12.44.1,1.7,2.435,2.583,3.114,1.505.545-3.608,1.321-6.77,1.636-8.775a14.541,14.541,0,0,0-.333-6.449,76.759,76.759,0,0,1,2.251-8.653c.331-1.04,2.209-4.4.265-7.74Z" transform="translate(-1916.557 -1394.902)"/><path class="ak" d="M1922.223,1754.339c0,.3.009.756.009,1.05.1,1.7,2.464,2.617,3.143,1.539.04-.266.1-.529.141-.79C1924.6,1757.121,1922.813,1755.843,1922.223,1754.339Z" transform="translate(-1921.765 -1725.309)"/><path class="al" d="M1916.657,1454.279c.761,3.816,2.912,8.913,4.087,12.749.611-3.287,2.141-8.885.818-12.312.133-.918.547-2.662,1.048-4.526-1.018-1.93-.045-3.471-.526-6.189-2.7-.47,1.373-3.76-4.331-.295A98.632,98.632,0,0,0,1916.657,1454.279Z" transform="translate(-1916.649 -1438.323)"/></g><g transform="translate(7.968 28.684)"><path class="am" d="M1884.221,1434.386c1.555,3.52,4.424,10.426,5.95,14.746.789,1.147,3.6,1.028,3.6-.042-.621-3.612-1.352-9.183-2.649-12.351a28.392,28.392,0,0,0-2.389-3.995c-.41-1.594-.924-5.9-1.321-8.23.356-1.928,1.911-5.152-1.077-7.953-1.206.857-4.933,1.394-6.623.439C1879.439,1424.615,1881.308,1427.791,1884.221,1434.386Z" transform="translate(-1879.685 -1416.56)"/><path class="an" d="M2005.6,1810.533c.068.188.2.57.267.751.813,1.181,3.711,1.058,3.7-.043q-.046-.268-.093-.549C2008.793,1811.4,2006.7,1811.4,2005.6,1810.533Z" transform="translate(-1995.435 -1778.714)"/></g><path class="ao" d="M1873.11,1187c-.251,2.262.429,4.487-.263,6.552-.031.214-.051,1.051-.087,1.278-.456,2.676-6.116,5.383-10.835,2.816-.026-.332,0-.678-.022-1.293a7.314,7.314,0,0,0-.159-1.539c.007-1.456.46-2.2.243-3.821-.442-3.3-2.268-6.464-1.258-9.057a2.757,2.757,0,0,1,1.027-1.172c1.115-.9,6.884-3.833,8.633-4.041C1875.466,1176.063,1873.382,1184.543,1873.11,1187Z" transform="translate(-1854.016 -1167.374)"/><g transform="translate(8.871 0)"><path class="ap" d="M1891.525,1079.139c.321.159,1.951-.072,1.9.074-.023.729-.241,1.172-.311,2.17,1.792-.25,4.142-.509,4.236-1.883-.008-.11-.014-.22-.019-.328,0-.013,0-.025-.006-.038h0a2.439,2.439,0,0,1,.144-1.177,9.074,9.074,0,0,0,1.435-2.227,3.777,3.777,0,0,0-1.105-4.239c-2.531-2.01-5.767-.58-6.588,2.36-.16.574.293.885.277,1.376,0,.1-.13.2-.233.409C1891.12,1075.931,1891.131,1078.944,1891.525,1079.139Z" transform="translate(-1891.155 -1069.816)"/><path class="aq" d="M1891.6,1079.123c.321.159,1.934-.055,1.886.09-.023.729-.24,1.172-.311,2.17,1.041.256,3.847-.119,4.267-1.7a9.716,9.716,0,0,1,.093-1.73,9.08,9.08,0,0,0,1.435-2.227,3.777,3.777,0,0,0-1.105-4.239c-2.531-2.01-5.767-.58-6.588,2.36-.16.574.293.885.277,1.376,0,.1-.131.2-.234.409C1891.175,1075.931,1891.2,1078.928,1891.6,1079.123Z" transform="translate(-1891.21 -1069.816)"/><path class="ar" d="M1891.66,1079.139a2.6,2.6,0,0,0,1.4-.17,2.442,2.442,0,0,0,.621-.431c.217-.088.7-.772-.048-1.861-.728-1.062,3.682,1.656,3.915,1.279a9.075,9.075,0,0,0,1.435-2.227,3.777,3.777,0,0,0-1.105-4.239c-2.531-2.01-5.768-.58-6.588,2.36-.16.574.293.885.277,1.376,0,.1-.13.2-.234.409C1891.189,1075.931,1891.274,1078.932,1891.66,1079.139Z" transform="translate(-1891.224 -1069.816)"/><path class="as" d="M1918.736,1144.88c.907-.845,1.782,1.844.323,1.815A1.254,1.254,0,0,0,1918.736,1144.88Z" transform="translate(-1916.486 -1137.986)"/><path class="at" d="M1918.107,1146.163c-.136-.376-.021-.513.144-.472a1.07,1.07,0,0,1,.574.7c.217.629-.094,1.422-.7,1.112.522.03.473-.6.317-.987C1918.334,1146.247,1918.17,1146.06,1918.107,1146.163Z" transform="translate(-1915.852 -1138.876)"/><path class="as" d="M1919.867,1153.723c-.146.272-.2.433-.149.527.032.065.133.139.3-.02A.938.938,0,0,0,1919.867,1153.723Z" transform="translate(-1917.373 -1146.267)"/><path class="au" d="M1892.226,1067.73l-.035-.019a1.551,1.551,0,0,1-.512-2.45c.994-.882,3.691-.79,5.4.091,1.741.9,2.167,3.127,1.647,4.88-.347,1.167-1.189,1.776-1.61,2.66a1.059,1.059,0,0,1-1.072.391c-1.207-.25-1.486-1.523-2.211-2.083-.4-.307-.807-.39-.956.449-.029.369-.034.743-.061,1.083-.042.533.091.633-.361.816a4.052,4.052,0,0,1-1.422.291c-.113-.044-.106-.71-.084-1.208.045,0,.047.171.071.167.044-.006.1-.018.162-.024a1.954,1.954,0,0,0-.072-.6.953.953,0,0,0-.2-.453.773.773,0,0,1-.024-.391,1.23,1.23,0,0,1,.516.728,3.669,3.669,0,0,1,.134.662,1.257,1.257,0,0,0,.618-.2,2.35,2.35,0,0,0,.391-1.238,2.316,2.316,0,0,0-.549-1.913c-.146-.208-.153-.632.207-1.578A.545.545,0,0,0,1892.226,1067.73Z" transform="translate(-1890.874 -1064.382)"/><path class="av" d="M1895.807,1064.161c.375.471,1.989-.617,4.246-.2-.484-1.491-.763-1.808-1.441-2.244a2.224,2.224,0,0,0-2.839.447A1.877,1.877,0,0,0,1895.807,1064.161Z" transform="translate(-1895.129 -1061.399)"/></g><path class="aw" d="M1905.033,1178.251c.489.151.982.635.892.958-.487,1.99-4.186,2.368-6.455,1.888-.027-.005.883-1.2,1.317-1.34C1902.216,1179.9,1904.593,1179.426,1905.033,1178.251Z" transform="translate(-1889.905 -1168.814)"/><path class="ai" d="M1869.9,1242.3c-.207-.9-1.457-6.771-1.723-7.826-.532-2.115-.966-4.315-.436-5.678.633-1.859,3.567-.164,3.988,2.341C1872.239,1234.139,1875.809,1242.562,1869.9,1242.3Z" transform="translate(-1860.521 -1214.556)"/><g transform="translate(2.934 13.336)"><path class="ap" d="M1889.167,1540.564c.272.416.638.336.711.794a6.726,6.726,0,0,1-.631.32c-.111.022-.357-.187-.372-.295,0-.025.054-.365.054-.365Z" transform="translate(-1883.099 -1515.2)"/><g transform="translate(0 13.634)"><path class="ax" d="M1819.672,1396.045c0-.183-.143-.332-.08-.449s.351-.2.472-.244a.784.784,0,0,1,.624.114l9.574,5.526a2.228,2.228,0,0,1,1.01,1.749l-.024,6.856a.714.714,0,0,1-.288.645,1.171,1.171,0,0,1-.564.16c-.105-.018-.047-.158-.165-.226l-9.574-5.526a2.226,2.226,0,0,1-1.01-1.749Z" transform="translate(-1819.396 -1395.327)"/><path class="ay" d="M1817.379,1397.167c0-.642.457-.9,1.016-.579l9.574,5.525a2.228,2.228,0,0,1,1.01,1.749l-.024,6.856c0,.642-.458.9-1.017.579l-9.574-5.526a2.226,2.226,0,0,1-1.01-1.749Z" transform="translate(-1817.355 -1396.359)"/><path class="az" d="M1824.876,1410.39c0-.263.187-.37.416-.237l2.366,1.357a.913.913,0,0,1,.413.717l.012,2.6c0,.263-.187.369-.416.237l-2.366-1.357a.912.912,0,0,1-.414-.716Z" transform="translate(-1824.268 -1408.903)"/><path class="i" d="M1824.876,1464.882c0-.132.094-.184.209-.115l9.5,5.384a.468.468,0,0,1,.207.363v.261c0,.132-.094.184-.209.115l-9.5-5.384a.466.466,0,0,1-.207-.363Z" transform="translate(-1824.268 -1459.131)"/><path class="i" d="M1824.876,1483.706c0-.132.094-.184.209-.115l9.5,5.384a.468.468,0,0,1,.207.363v.261c0,.132-.094.184-.209.116l-9.5-5.384a.467.467,0,0,1-.207-.363Z" transform="translate(-1824.268 -1476.434)"/></g><g transform="translate(2.604 21.687)"><path class="ap" d="M1850.559,1495.04a3.987,3.987,0,0,1-.648,1.125c-.2.349-.339.54-.311.833a3.051,3.051,0,0,0,.468,1.683,10.1,10.1,0,0,0,3.07,1.166,2.353,2.353,0,0,1-.048-1.266,10.925,10.925,0,0,0,.475-1.033c.1-.434-.173-.937-.189-1.677Z" transform="translate(-1849.597 -1495.04)"/><path class="ba" d="M1882.437,1507.078c.275.079.523.143.714.185a2.352,2.352,0,0,1-.048-1.266,11,11,0,0,0,.475-1.033c.1-.434-.173-.937-.189-1.677l-.61-.18.015.111a4.524,4.524,0,0,1-.045,1.271c-.231.7-.446.78-.492,1.2A3.481,3.481,0,0,0,1882.437,1507.078Z" transform="translate(-1879.608 -1502.456)"/></g><path class="ah" d="M1850.77,1230.44c.579,2.677,1.655,6.591,2.006,9.233l-1.215,8.2c.173,1.4,2.468,1.783,3.018,1.2l2.318-8.89c-.106-2.078-.762-7.925-.989-9.906a4.824,4.824,0,0,0-1.882-3.453C1851.943,1225.639,1850.268,1228.121,1850.77,1230.44Z" transform="translate(-1847.988 -1226.518)"/></g></g><g transform="translate(35.078 84.271)"><path class="j" d="M1350.391,1317.454l-16.535-9.486a2.732,2.732,0,0,0-2.354-.2l-1.712,1.043c-.345.21-1.477.906-.72,1.318,2.229,1.212,14.621,8.519,16.884,9.75a3.178,3.178,0,0,0,1.711.262,4.3,4.3,0,0,0,1.854-.552l.684-.422c.484-.3.751-.624.777-.936S1350.81,1317.645,1350.391,1317.454Z" transform="translate(-1328.815 -1293.749)"/><g transform="translate(1.044)"><path class="bb" d="M1500.851,1229.417c0-.474-.152-.364-.395-.567a.881.881,0,0,0-.11-.078l-3.634-2.021c-2.307-1.052-3.239,3.377-3.559,6.727l3.1,1.781,4.3-2.351Z" transform="translate(-1480.924 -1219.313)"/><path class="p" d="M1369.431,1209.713l.017-7.683-.069-2.469-15.123-8.943-.048,10.152a2.27,2.27,0,0,0,.094.691,1.489,1.489,0,0,0,.163.357,1.256,1.256,0,0,0,.108.146,1.085,1.085,0,0,0,.265.222l15.123,8.943C1369.567,1210.9,1369.427,1210.407,1369.431,1209.713Z" transform="translate(-1353.2 -1186.242)"/><path class="bc" d="M1446.359,1331.679l.7-.4-.02,2.565-.7.4-.024-1.466Z" transform="translate(-1437.869 -1315.543)"/><path class="bd" d="M1346.5,1136.658a1.691,1.691,0,0,0-.671-.208,3.167,3.167,0,0,0-2,.855,5.892,5.892,0,0,0-1.151,1.331,5.777,5.777,0,0,0-.91,2.533c-.008.1-.014.2-.014.3l-.02,3.026,6.843,7.609,1.344.795,6.939.532.079-.067.047-1.4a13.5,13.5,0,0,1,.785-4.054c.587-1.064,2.583-3,3.853-2.3Z" transform="translate(-1341.738 -1136.448)"/><path class="bc" d="M1446.359,1334.547l.259-.148-.019,2.565-.26.148-.024-1.466Z" transform="translate(-1437.869 -1318.411)"/><path class="be" d="M1422.989,1320.188l1.157.779.771.381.259-.148-1.928-1.16Z" transform="translate(-1416.427 -1305.213)"/><path class="bf" d="M1422.767,1321.869l1.928,1.16-.02,2.565-1.928-1.16Z" transform="translate(-1416.205 -1306.894)"/><g transform="translate(6.933 1.474)"><path class="bg" d="M1435.98,1165.677c0-.035.009-.069.016-.1l0-.013c.007-.031.015-.062.024-.09l.005-.016a.785.785,0,0,1,.032-.079l0-.007a.7.7,0,0,1,.044-.078.592.592,0,0,1,.077-.094l.021-.019a.536.536,0,0,1,.093-.07l-1.042.595a.529.529,0,0,0-.093.07l-.021.02a.6.6,0,0,0-.077.093v0a.755.755,0,0,0-.042.075v0l0,.006c-.008.017-.016.035-.023.053s-.006.017-.009.026l-.006.017,0,.015c-.006.018-.011.037-.015.056a.171.171,0,0,0,0,.02l0,.013c0,.007,0,.014,0,.021s-.006.034-.008.052l0,.029s0,.007,0,.01,0,.009,0,.013,0,.034,0,.051,0,.035,0,.053a.028.028,0,0,1,0,0l-.006.555,1.042-.595.006-.555c0-.042,0-.081.007-.12C1435.979,1165.684,1435.979,1165.681,1435.98,1165.677Z" transform="translate(-1434.331 -1164.268)"/><path class="bh" d="M1436.054,1154.907l-.069-.036-.045-.022-.011-.005-.012-.006-.067-.029-.068-.026-.012,0-.011,0-.045-.015-.07-.02-.034-.008-.015,0-.02,0-.074-.013-.046,0-.015,0-.014,0-.08,0h-.088a.935.935,0,0,0-.1.013h0l-.024.006a.892.892,0,0,0-.093.025l-.007,0a.818.818,0,0,0-.131.059l-1.042.595a1.719,1.719,0,0,1,1.224.244l.046-.032,2.059,1.209.007,0a3.6,3.6,0,0,1,1.577,2.552s.088-.052.088-.051h0v0h0v0h0v0h0v0h0v0h0v0h0v0h0v0h0v0h0v0h0v.006h0v0h0v0h0v0h0v0h0v0h0v0h0v0h0v0h0v.006h0v0h0v0h0v.006h0v0h0v0h0v0h0v.009h0v0h0v0h0v0h0v.019h0v0h0v0h0v.009h0v.028h0v0h0v0h0v0h0v.009h0v0h0v0h0v0h0v.018h0v0h0v0h0v0h0v.009h0v.006h0v.009h0v0h0v.012h0v.006h0v.021h0v.006h0v.049h0v.021h0v.024l-.005.556,1.042-.595.006-.556h0v-.005h0v-.01h0v0h0l0-.033v-.005h0c0-.019,0-.038,0-.057h0v-.007c0-.027-.005-.055-.009-.083h0c-.01-.087-.025-.173-.042-.258,0-.011-.005-.022-.007-.032l0-.019c0-.012-.005-.025-.009-.037a3.738,3.738,0,0,0-.2-.59,4.131,4.131,0,0,0-.448-.789s-.065-.087-.075-.1-.052-.07-.063-.079a3.268,3.268,0,0,0-.782-.7l-.016-.01-2.167-1.273Z" transform="translate(-1433.356 -1154.701)"/><path class="bi" d="M1431.455,1163.578l-2.167-1.273c-.927-.545-1.692-.117-1.7.953l-.005.556.593.349.006-.555c.007-.693.5-.97,1.1-.617l2.167,1.273a2.406,2.406,0,0,1,1.075,1.9l-.006.555.6.35.006-.556A3.719,3.719,0,0,0,1431.455,1163.578Z" transform="translate(-1427.58 -1161.473)"/></g><path class="bj" d="M1533.56,1249.838l-3.518,2-.048,10.152c-.007,1.4.978,1.967,2.2,1.275l.045-.026a4.828,4.828,0,0,0,2.22-3.781l.031-6.35.018-.01.018-3.7c.006-1.313-.711-2.026-1.723-1.893a4.165,4.165,0,0,0-2.695,1.615,5.964,5.964,0,0,0-1.1,3.362l-.02,3.02.959-.545.02-3.018a3.408,3.408,0,0,1,.44-1.556c.369-.681,1.689-2.116,2.658-1.548A1.158,1.158,0,0,1,1533.56,1249.838Z" transform="translate(-1513.863 -1238.516)"/></g></g><g transform="translate(30.868 66.773)"><path class="c" d="M1281.443,919.956c2.907.769,5.507,4.209,5.808,7.683s-1.811,5.668-4.718,4.9-5.507-4.209-5.808-7.683S1278.537,919.187,1281.443,919.956Z" transform="translate(-1276.697 -919.802)"/><g transform="translate(2.926 2.487)"><path class="bk" d="M1313.42,953.232l.014-1.117a1.759,1.759,0,0,1,.376-1.334c.3-.271.7-.243,1.194.046l1.077.606a1.9,1.9,0,0,1,1,1.055,4.633,4.633,0,0,1,.2,1.618v.807a4.074,4.074,0,0,1,.363,1.337c.135,1.554-.81,2.534-2.109,2.191a4.031,4.031,0,0,1-2.6-3.435,2.3,2.3,0,0,1,.487-1.774Zm3.184.633a3.52,3.52,0,0,0-.151-1.14,1.279,1.279,0,0,0-.688-.7c-.369-.185-.732-.429-1.1-.618-.219-.128-.357-.174-.409-.127-.1.091-.152.363-.152.835l-.009.693a1.762,1.762,0,0,1,.948.007A3.226,3.226,0,0,1,1316.6,953.864Z" transform="translate(-1312.921 -950.593)"/><path class="bl" d="M1336.3,1000.23v.789a.336.336,0,1,1-.672,0v-1.048a1,1,0,0,1-.21-.517c-.031-.361.188-.588.49-.508a.935.935,0,0,1,.6.8A.47.47,0,0,1,1336.3,1000.23Z" transform="translate(-1333.601 -995.027)"/></g></g><g transform="translate(0 34.198)"><path class="ae" d="M895.838,1202.842l14.22-8.1c1.55-.708,3.769-1.272,5.348-.45,1.439.749,3.81,2.282,4.858,2.88.8.454,3.56,2.11,1.839,3.046-5.064,2.754-10.076,5.851-15.218,8.648a7.214,7.214,0,0,1-3.889.6,10.3,10.3,0,0,1-4.212-1.254l-2.522-1.468a3.072,3.072,0,0,1-1.765-2.127C894.441,1203.919,894.887,1203.277,895.838,1202.842Z" transform="translate(-894.493 -1139.175)"/><g transform="translate(2.539)"><g transform="translate(12.149 8.93)"><g transform="translate(15.466 5.227)"><path class="as" d="M1271.5,693.014a2.253,2.253,0,0,1-.314-.074c.115-.016.209-.031.275-.044a9.374,9.374,0,0,0,1.277-.812c-.384-.777-1.336.03-1.522.044-.073.006-.57-.082-1.052-.1a1.762,1.762,0,0,0-1.591.634c-.219.154-.465.341-.716.539a3.3,3.3,0,0,0,.538,1.755,1.257,1.257,0,0,1,.372-.1,4.862,4.862,0,0,1,2.03.418c1.091.362,1.284.351,2.968-.862,1.234-.888,1.906-1.385,1.7-2.037C1274.967,690.844,1273.02,692.8,1271.5,693.014Z" transform="translate(-1267.856 -691.747)"/><g transform="translate(0.263 0.629)"><path class="bm" d="M1274.359,705.139c-1.049-.167-1.782-1.035-2.641-.527-.217.128-.413.254-.6.382a2.617,2.617,0,0,0,.275.492,1.25,1.25,0,0,1,.372-.1,4.862,4.862,0,0,1,2.03.418c1.091.362,1.284.351,2.968-.862a5.884,5.884,0,0,0,1.629-1.425c.11-.2-.212-.426-.476-.237C1276.559,704.247,1275.88,704.926,1274.359,705.139Z" transform="translate(-1271.118 -702.909)"/><path class="bn" d="M1284.707,699.54a9.782,9.782,0,0,1-3.444,1.352c-.152-.03-.128-.325-.143-.688-.116.241.027.783-.2.665-1.3-.66-1.857-.781-2.607-.306a2.684,2.684,0,0,1,1.482.106c.452.152.87.418,1.349.548A8.534,8.534,0,0,0,1284.707,699.54Z" transform="translate(-1277.727 -699.54)"/></g></g><path class="bo" d="M1081.741,639.6c-.261-.255-.511-.527-.681-.685-1.316-1.222-3.483-5.187-4.7-11.092a6.741,6.741,0,0,1,1.981-.744,2.436,2.436,0,0,1,2.193.692,8.02,8.02,0,0,1,1.445,3.7,29.617,29.617,0,0,0,1.813,4.527q.042.1.082.206a29.7,29.7,0,0,1,2.807-1.271c1.271-.508,2.719-.986,4.287-1.441.187-.054.36.069.545.016.1-.045.564-.207.646-.246a3.3,3.3,0,0,0,.768,2.274c-.1.032-.6.265-.7.3a2.2,2.2,0,0,0-.45.432c-1.18,1.218-4.582,3.042-7.714,4C1082.992,640.592,1082.19,640.415,1081.741,639.6Z" transform="translate(-1076.357 -627.033)"/><path class="bp" d="M1081.741,641.054c-.261-.255-.511-.527-.681-.685-1.316-1.222-3.483-5.187-4.7-11.092,2.623-2.135,5.135,1.391,5.565,3.755a49.446,49.446,0,0,1,1.13,8.843A1.485,1.485,0,0,1,1081.741,641.054Z" transform="translate(-1076.357 -628.489)"/></g><g transform="translate(4.532 25.825)"><path class="bq" d="M982.937,1256.27a5.887,5.887,0,0,1-.161.827,9.6,9.6,0,0,0-.425,1.329c-.218.926.082,2.167-.212,3.477a1.432,1.432,0,0,0,.208,1.406,2.424,2.424,0,0,0,1.82,1.153,1.255,1.255,0,0,0,.883-.428,2.11,2.11,0,0,0,.528-1.553,12.868,12.868,0,0,1-.138-1.787c.022-.642.139-.995.124-1.7-.016-.744-.073-1.767-.084-2.248Z" transform="translate(-982.045 -1222.345)"/><path class="bq" d="M1079.943,1200.889a4.311,4.311,0,0,0-.414,1.86c.149.486.491.683.872,1.018l.269.059c.666.36.91,1.625,1.528,2.2a4.791,4.791,0,0,0,2.166.793c.921.178,1.8-.085,1.556-.809-.6-1.8-3.17-3.831-3.229-5.842Z" transform="translate(-1071.656 -1170.775)"/><path class="br" d="M1058.194,853.511c-.066,3.447-.817,9.9-.7,13.294a2.262,2.262,0,0,1-3.217-.294c-.358-3.125-.774-7.565-.816-9.28a13.3,13.3,0,0,1,.458-4.022c-.512-3.771-2.69-8.918-2.171-12.466.228-1.559,1.249-3.236,1.546-4.522,2.569,3.165,4.527,1.648,5.59,1.373-.006,1.094.077.948.041,2.1-.12,3.887-.3,8.036-.514,12.069A5.508,5.508,0,0,1,1058.194,853.511Z" transform="translate(-1046.044 -836.221)"/><path class="al" d="M1053.683,860.5c-.12-1.357-.206-2.539-.224-3.269a13.3,13.3,0,0,1,.458-4.022c-.512-3.771-2.69-8.918-2.171-12.466.228-1.559,1.249-3.236,1.546-4.522,2.569,3.165,4.527,1.648,5.59,1.373,0,.122,0,.228,0,.323l-3.367,2.488.829-.187c-.031,4.479-.586,8.562-.669,12.979a67.044,67.044,0,0,0-1.98,7.225Z" transform="translate(-1046.044 -836.221)"/><path class="bs" d="M995.8,866.579c-.619,3.447-2.425,11.811-2.855,15.208a2.114,2.114,0,0,1-2.926-.608c-.013-3.125,0-8.747.234-10.462a21.509,21.509,0,0,1,1.27-4.911c-.228-8.053-1.128-10.2-.04-13.748.478-1.558,1.728-3.062,2.232-4.348.69,1.059,1.753,2.562,4.032,2.376.223-.018,2.123-1.376,2.751-1.532-.8,4.791-3.087,11.049-4.2,16.275A6.052,6.052,0,0,1,995.8,866.579Z" transform="translate(-989.375 -846.782)"/></g><path class="bt" d="M984.025,625.561a1.9,1.9,0,0,1,.711.24c1.7.941,2.286,3.712,2.559,6.139a36.726,36.726,0,0,1-.01,5.779c-.053,1.537.145,2.959.076,4.413-.02.431-.184.9-.228,1.357,0,.328-.115.654-.111.908-.849,3.237-8.872,3.5-10.04,1.313a6.449,6.449,0,0,0,.206-.98c-.755-.688-.319-2.365-.438-3.536a9.481,9.481,0,0,0-.476-2.418c-1.091-2.688-2.614-4.757-2.917-6.82-.208-1.421,1.608-3.19,4-4.624C979.664,625.954,982.791,625.2,984.025,625.561Z" transform="translate(-969.512 -616.667)"/><g transform="translate(5.569 14.78)"><g transform="translate(0.309)"><g transform="translate(0 0.152)"><path class="bu" d="M1010.617,701.755c-.852.864-6.1,5.88-11.914,4.591l.06-.4c6.126,1.359,11.658-4.593,11.674-4.61l.15.143q.012.1.023.2Z" transform="translate(-998.703 -701.341)"/><path class="bu" d="M1021.945,738.256c-1.437,1.354-5.906,5.08-10.906,4.357-.034-.148-.073-.29-.115-.424,5.325.866,10.1-3.591,11.035-4.528Q1021.955,737.96,1021.945,738.256Z" transform="translate(-1009.937 -734.728)"/></g><path class="bu" d="M1009.287,706.714l1.033-2.149,1.384,2.335,1.193-2.843,1.639,2.193.848-3.054,1.732,1.869.788-3.476,1.292,1.949,1.083-4.079q.032.248.059.492.01.087.018.174l-1.06,3.99-1.277-1.927-.764,3.371-1.747-1.886-.864,3.112-1.679-2.246-1.216,2.9-1.4-2.36-.943,1.961c-.028-.087-.058-.17-.091-.249Z" transform="translate(-1008.432 -699.459)"/><g transform="translate(0.414 2.209)"><path class="bu" d="M1020.937,784.631a.227.227,0,0,1,.2.227.191.191,0,0,1-.2.2.227.227,0,0,1-.2-.227A.191.191,0,0,1,1020.937,784.631Z" transform="translate(-1019.368 -779.961)"/><path class="bu" d="M1036.179,769.157a.227.227,0,0,1,.2.227.191.191,0,0,1-.2.2.227.227,0,0,1-.2-.227A.191.191,0,0,1,1036.179,769.157Z" transform="translate(-1033.379 -765.736)"/><path class="bu" d="M1053.988,780.621a.227.227,0,0,1,.2.227.191.191,0,0,1-.2.2.227.227,0,0,1-.2-.227A.191.191,0,0,1,1053.988,780.621Z" transform="translate(-1049.75 -776.274)"/><path class="bu" d="M1069.063,760.661a.227.227,0,0,1,.2.227.191.191,0,0,1-.2.2.227.227,0,0,1-.2-.227A.191.191,0,0,1,1069.063,760.661Z" transform="translate(-1063.607 -757.926)"/><path class="bu" d="M1087.95,768.144a.227.227,0,0,1,.2.227.191.191,0,0,1-.2.2.227.227,0,0,1-.2-.227A.191.191,0,0,1,1087.95,768.144Z" transform="translate(-1080.969 -764.805)"/><path class="bu" d="M1099.215,746.088a.227.227,0,0,1,.2.227.191.191,0,0,1-.2.2.227.227,0,0,1-.2-.227A.191.191,0,0,1,1099.215,746.088Z" transform="translate(-1091.324 -744.53)"/><path class="bu" d="M1118.267,750.767a.227.227,0,0,1,.2.227.191.191,0,0,1-.2.2.228.228,0,0,1-.2-.227A.191.191,0,0,1,1118.267,750.767Z" transform="translate(-1108.837 -748.831)"/><path class="bu" d="M1128.372,726.806a.227.227,0,0,1,.2.227.191.191,0,0,1-.2.2.227.227,0,0,1-.2-.227A.191.191,0,0,1,1128.372,726.806Z" transform="translate(-1118.126 -726.806)"/><path class="bu" d="M1144.608,729.336a.2.2,0,0,1,.051.01q0,.207,0,.411a.192.192,0,0,1-.053,0,.227.227,0,0,1-.2-.227A.191.191,0,0,1,1144.608,729.336Z" transform="translate(-1133.051 -729.131)"/><path class="bu" d="M1004.039,769.67a.227.227,0,0,1,.2.227.191.191,0,0,1-.2.2.227.227,0,0,1-.2-.227A.191.191,0,0,1,1004.039,769.67Z" transform="translate(-1003.835 -766.208)"/></g></g><path class="bp" d="M997.064,714.063a10.832,10.832,0,0,1-.9,5.95,18.846,18.846,0,0,0-1.283-2.724C994.93,717.161,996.686,712.013,997.064,714.063Z" transform="translate(-994.883 -712.441)"/></g><g transform="translate(0 13.3)"><path class="bv" d="M998.756,874.332c.371.193,1.035.362,1.306.5.141.072,1.15.613,1.72.945.609.355.81.91,1.2,1.516a3.959,3.959,0,0,1,.466,1.115c.054.263-.586.816-.877.771-.659-.1-1.375-.857-1.552-.935-1.505-.661-2.207-.691-2.773-1.257-.241-.242-.427-.983-.935-1.628l.841-.866Z" transform="translate(-991.547 -858.729)"/><path class="bo" d="M929.654,682.141c-1.341,2.148-2.307,6.055-3.5,8.7a1.713,1.713,0,0,0-.154.562c-.221.657.124,1.206.58,1.791a19.3,19.3,0,0,0,4.3,4.431,1.387,1.387,0,0,0,.6.177c.144.1.348.3.5.4-.2-.221.81-1.478,1.306-1.432-.136-.148-.276-.309-.418-.48a1.513,1.513,0,0,0-.142-.552,23.309,23.309,0,0,0-3.038-4.023c.533-.694.984-1.5,1.357-2.072a34.375,34.375,0,0,0,1.773-3.067c.208-.4.325-.605.525-1.021C934.835,682.471,931.281,679.536,929.654,682.141Z" transform="translate(-925.933 -681.137)"/></g><g transform="translate(8.954)"><path class="as" d="M1045.756,601.39c.024-.129.055-.259.083-.4.079-.4-.024-1.165.082-2.073l-3.436-1.451a14.649,14.649,0,0,1-.728,3.9c.038,1.546,3.877,2.237,3.958.422A2.845,2.845,0,0,1,1045.756,601.39Z" transform="translate(-1041.357 -590.926)"/><path class="bw" d="M1053.081,601.39c.024-.129.055-.259.083-.4.079-.4-.024-1.165.082-2.073l-3.436-1.451c-.013.438-.039.8-.076,1.113a3.074,3.074,0,0,0,3.306,3.208A2.826,2.826,0,0,1,1053.081,601.39Z" transform="translate(-1048.682 -590.926)"/><path class="as" d="M1047.709,541.272c-.421-.278-1.574-.978-1.951-1.255-.826-.606-.726-1.379-.965-2.59a2.175,2.175,0,0,1-1.1-1.485,3.589,3.589,0,0,1,1.4-3.134,3.119,3.119,0,0,1,2.7-.552,3.6,3.6,0,0,1,2.888,3.628,1.144,1.144,0,0,1-.055.424,5.326,5.326,0,0,0-.182.633c-.1.506.238.689.1,1.317a9.528,9.528,0,0,1-1.185,2.8A3.033,3.033,0,0,1,1047.709,541.272Z" transform="translate(-1043.113 -530.894)"/><path class="bx" d="M1086.339,569.046a5.472,5.472,0,0,1,.095.743,1.144,1.144,0,0,1-.055.424,5.405,5.405,0,0,0-.182.633c-.1.506.238.689.1,1.317a10.168,10.168,0,0,1-.534,1.571,1.823,1.823,0,0,1-2.548-.432,4.012,4.012,0,0,1-.255-3.993A4.872,4.872,0,0,0,1086.339,569.046Z" transform="translate(-1078.862 -564.799)"/><path class="by" d="M1036.83,520.954a9.826,9.826,0,0,0,.949,2.947c.4.643.226-.145.437-.585.162-.339.687-.378.846-.727a1.1,1.1,0,0,0,.373.69c.122.066.368.157.378-.193.034-1.21.606-1.294.425-2.019-.135-.543-.1-.777.03-.973.395.055.649.46,1.112.659a4.047,4.047,0,0,0,2.749-.261,1.487,1.487,0,0,0,.247-2.483,14.617,14.617,0,0,0-1.682-1.011,3.1,3.1,0,0,0-3.99.422C1036.908,517.784,1036.713,519.5,1036.83,520.954Z" transform="translate(-1036.803 -516.462)"/><path class="as" d="M1051.8,583.855c-.744-.337-.836.551-.769,1.1.046.378.354.38.436.684a.7.7,0,0,0,.584.566c.47.033.248-.691.219-.973C1052.369,584.785,1052.273,584.069,1051.8,583.855Z" transform="translate(-1049.866 -578.343)"/><path class="bz" d="M1085.94,537.9c-.072.505.578,1.1,1.492,1.149a2.315,2.315,0,0,0,2.421-1.183,1.174,1.174,0,0,0-.445-1.271,1.064,1.064,0,0,0-1.016,0c-.626.275-1.149.975-1.6,1.147A6.229,6.229,0,0,1,1085.94,537.9Z" transform="translate(-1081.966 -534.85)"/></g></g></g></g></g></svg>