<svg xmlns="http://www.w3.org/2000/svg" width="71.68" height="71.68" viewBox="0 0 71.68 71.68"><defs><style>.a{isolation:isolate;}.b{fill:none;stroke:#f26425;}.c{fill:#f26425;}</style></defs><g class="a" transform="translate(-12.5 0.307)"><path class="b" d="M127.34,286.57A35.34,35.34,0,1,0,92,251.23a35.409,35.409,0,0,0,35.34,35.34Zm0,0" transform="translate(-79 -215.697)"/><g transform="translate(36.26 23.449)"><g transform="translate(0 0)"><path class="c" d="M125.085,18.659s.506.443.923.236c.472-.237,1.8,1.072,2.224,1.379l.009,0-.232.233a.778.778,0,1,0,1.1,1.1l1.834-1.832a.779.779,0,0,0-1.1-1.1l-.305.305c-.253-.349-.674-.943-.62-1.14.224-.862-1.534-2.9-1.534-2.9-4.365-4.364-7.28-4.265-8.667-3.788-.557.192-.453.313.125.415,4.208.735,4.73,3.216,4.017,4.174-.274.37.126.816.126.816l.15.149-7.105,7.1a1.4,1.4,0,0,1,.273.207l1.2,1.194a1.39,1.39,0,0,1,.205.271l7.105-7.1Z" transform="translate(-106.716 -10.931)"/><path class="c" d="M16.607,166.807a.74.74,0,0,0-.989-.036l-7.9,7.079a.621.621,0,0,0-.035.92l2.151,2.149a.621.621,0,0,0,.919-.032l7.081-7.9A.738.738,0,0,0,17.8,168Z" transform="translate(-7.5 -153.241)"/></g><path class="c" d="M13.886,18.388a4.534,4.534,0,0,0,1.38-.216l2.651,2.65,2.9-2.9-2.65-2.652a4.513,4.513,0,0,0-1.1-4.555A4.46,4.46,0,0,0,13.9,9.4a4.539,4.539,0,0,0-1.943.439.309.309,0,0,0-.086.5l2.79,2.79a1.085,1.085,0,0,1,0,1.538,1.111,1.111,0,0,1-1.537,0l-2.791-2.79a.309.309,0,0,0-.5.085,4.493,4.493,0,0,0,4.051,6.433Z" transform="translate(-8.991 -9.285)"/><path class="c" d="M4.49,8.992a4.534,4.534,0,0,0,1.38-.216l2.651,2.65,2.9-2.9L8.775,5.87a4.513,4.513,0,0,0-1.1-4.555A4.46,4.46,0,0,0,4.5,0,4.539,4.539,0,0,0,2.559.439a.309.309,0,0,0-.086.5l2.79,2.79a1.085,1.085,0,0,1,0,1.538,1.111,1.111,0,0,1-1.537,0L.936,2.474a.309.309,0,0,0-.5.085A4.493,4.493,0,0,0,4.49,8.992Z" transform="translate(23.967 23.673) rotate(180)"/></g></g></svg>